<?xml version="1.0" encoding="UTF-8" standalone="no"?>
<!-- Created with Inkscape (http://www.inkscape.org/) -->

<svg
   width="44.70834mm"
   height="44.708336mm"
   viewBox="0 0 44.70834 44.708336"
   version="1.1"
   id="svg5191"
   inkscape:version="1.1 (ce6663b3b7, 2021-05-25)"
   sodipodi:docname="logo10.svg"
   xmlns:inkscape="http://www.inkscape.org/namespaces/inkscape"
   xmlns:sodipodi="http://sodipodi.sourceforge.net/DTD/sodipodi-0.dtd"
   xmlns="http://www.w3.org/2000/svg"
   xmlns:svg="http://www.w3.org/2000/svg">
  <sodipodi:namedview
     id="namedview5193"
     pagecolor="#ffffff"
     bordercolor="#666666"
     borderopacity="1.0"
     inkscape:pageshadow="2"
     inkscape:pageopacity="0.0"
     inkscape:pagecheckerboard="0"
     inkscape:document-units="mm"
     showgrid="false"
     fit-margin-top="0"
     fit-margin-left="0"
     fit-margin-right="0"
     fit-margin-bottom="0"
     inkscape:zoom="4.3994184"
     inkscape:cx="54.439014"
     inkscape:cy="61.030794"
     inkscape:window-width="2560"
     inkscape:window-height="1376"
     inkscape:window-x="0"
     inkscape:window-y="0"
     inkscape:window-maximized="1"
     inkscape:current-layer="g72093-2-3" />
  <defs
     id="defs5188" />
  <g
     inkscape:label="Layer 1"
     inkscape:groupmode="layer"
     id="layer1"
     transform="translate(-9.2849679,-47.047899)">
    <g
       id="g72093-2-3"
       transform="matrix(1.7476199,0,0,1.893172,-155.58398,-28.45882)"
       style="stroke-width:0.549771">
      <path
         id="rect40367-5-3-9-2-2-9-1-8-9-0-0"
         style="font-size:30.552px;line-height:1.25;font-family:'DejaVu Serif';-inkscape-font-specification:'DejaVu Serif, Normal';letter-spacing:0px;word-spacing:0px;display:inline;fill:#c55a11;fill-opacity:1;stroke:none;stroke-width:0.137443;stroke-linecap:round;stroke-linejoin:round;stroke-opacity:1;stop-color:#000000"
         d="m 107.13035,56.093277 v 7.406 h 7.15246 v -7.406 z m 7.1527,0 v 7.406 h 5.6385 v -7.406 z"
         sodipodi:nodetypes="cccccccccc" />
      <path
         id="rect40367-5-3-9-2-2-9-1-4-3-6-5"
         style="font-size:30.552px;line-height:1.25;font-family:'DejaVu Serif';-inkscape-font-specification:'DejaVu Serif, Normal';letter-spacing:0px;word-spacing:0px;display:inline;fill:#767171;fill-opacity:1;stroke:none;stroke-width:0.137443;stroke-linecap:round;stroke-linejoin:round;stroke-opacity:1;stop-color:#000000"
         d="m 94.339171,56.093268 v 7.406005 h 5.638498 v -7.406005 z m 5.638736,0 v 7.406005 h 7.152463 v -7.406005 z"
         sodipodi:nodetypes="cccccccccc" />
      <path
         id="rect40367-5-3-9-2-2-9-7-8-5"
         style="font-size:30.552px;line-height:1.25;font-family:'DejaVu Serif';-inkscape-font-specification:'DejaVu Serif, Normal';letter-spacing:0px;word-spacing:0px;display:inline;fill:#548235;fill-opacity:1;stroke:none;stroke-width:0.137443;stroke-linecap:round;stroke-linejoin:round;stroke-opacity:1;stop-color:#000000"
         d="m 94.339134,47.289713 v 8.803555 h 5.638535 v -8.803555 z"
         sodipodi:nodetypes="ccccc" />
      <path
         id="rect40367-5-3-9-2-2-9-1-9-9-6"
         style="font-size:30.552px;line-height:1.25;font-family:'DejaVu Serif';-inkscape-font-specification:'DejaVu Serif, Normal';letter-spacing:0px;word-spacing:0px;display:inline;fill:#70ad47;fill-opacity:1;stroke:none;stroke-width:0.137443;stroke-linecap:round;stroke-linejoin:round;stroke-opacity:1;stop-color:#000000"
         d="m 99.977651,47.289715 v 8.803567 h 7.152459 v -8.803567 z m 7.152699,0 v 8.803567 h 7.15246 v -8.803567 z" />
      <path
         id="rect40367-5-3-9-2-2-9-1-4-3-5-0-9"
         style="font-size:30.552px;line-height:1.25;font-family:'DejaVu Serif';-inkscape-font-specification:'DejaVu Serif, Normal';letter-spacing:0px;word-spacing:0px;display:inline;fill:#2e75b6;fill-opacity:1;stroke:none;stroke-width:0.137443;stroke-linecap:round;stroke-linejoin:round;stroke-opacity:1;stop-color:#000000"
         d="m 94.339171,39.883709 v 7.406004 h 5.638498 v -7.406004 z m 5.638736,0 v 7.406004 h 7.152463 v -7.406004 z"
         sodipodi:nodetypes="cccccccccc" />
      <path
         id="rect40367-5-3-9-2-2-9-1-4-3-7-7-9"
         style="font-size:30.552px;line-height:1.25;font-family:'DejaVu Serif';-inkscape-font-specification:'DejaVu Serif, Normal';letter-spacing:0px;word-spacing:0px;display:inline;fill:#bdd7ee;fill-opacity:1;stroke:none;stroke-width:0.137443;stroke-linecap:round;stroke-linejoin:round;stroke-opacity:1;stop-color:#000000"
         d="m 107.13011,39.883708 v 7.406005 h 7.15246 v -7.406005 z m 7.1527,0 v 7.406005 h 5.6385 v -7.406005 z"
         sodipodi:nodetypes="cccccccccc" />
      <path
         id="rect40367-5-3-9-2-2-9-1-7-2-1-7"
         style="font-size:30.552px;line-height:1.25;font-family:'DejaVu Serif';-inkscape-font-specification:'DejaVu Serif, Normal';letter-spacing:0px;word-spacing:0px;display:inline;fill:#c5e0b4;fill-opacity:1;stroke:none;stroke-width:0.137443;stroke-linecap:round;stroke-linejoin:round;stroke-opacity:1;stop-color:#000000"
         d="m 114.28279,47.289713 v 8.803555 h 5.63854 v -8.803555 z"
         sodipodi:nodetypes="ccccc" />
    </g>
    <path
       id="rect118768-9-3"
       style="display:none;fill:#000000;fill-opacity:1;stroke:none;stroke-width:1;stroke-linecap:round;stroke-linejoin:round;stroke-miterlimit:4;stroke-dasharray:none;stroke-opacity:1;paint-order:stroke fill markers;stop-color:#000000"
       d="M 6.639173,44.40231 V 94.40183 H 56.639218 V 44.40231 Z m 16.805175,3.32538 V 61.7475 c 0,0.47589 0.152254,0.90397 0.456819,1.28468 0.34264,0.34264 0.742558,0.51418 1.199412,0.51418 v 0.57103 l -3.826124,1.19889 V 64.0316 c -0.323607,0.34264 -0.761587,0.64714 -1.313614,0.91364 -0.5901,0.22843 -1.237168,0.34261 -1.941483,0.34261 -1.275382,10e-6 -2.360433,-0.57093 -3.2551,-1.71307 -0.932741,-1.16117 -1.398881,-2.54133 -1.398881,-4.14031 0,-1.67513 0.513588,-3.11213 1.541507,-4.31137 1.085022,-1.19923 2.360385,-1.79885 3.826124,-1.79885 0.494919,0 0.961577,0.0761 1.399397,0.2284 0.456848,0.17133 0.837477,0.38041 1.14205,0.62787 V 49.926 c 0,-0.19036 -0.104799,-0.3426 -0.314193,-0.45682 -0.228428,-0.13324 -0.494869,-0.19947 -0.799436,-0.19947 h -0.542602 v -0.5426 z m 5.48235,0.0284 c 0.34264,0 0.63776,0.12358 0.88522,0.37104 0.20939,0.24746 0.31419,0.53318 0.31419,0.85679 0,0.39975 -0.1048,0.7517 -0.31419,1.05627 -0.24746,0.28553 -0.56187,0.4284 -0.94258,0.4284 -0.34264,0 -0.63775,-0.14287 -0.88522,-0.4284 -0.24746,-0.30457 -0.37103,-0.65652 -0.37103,-1.05627 0,-0.32361 0.12357,-0.60933 0.37103,-0.85679 0.24747,-0.24746 0.56187,-0.37104 0.94258,-0.37104 z m 18.2454,0 c 0.34264,0 0.63776,0.12358 0.88522,0.37104 0.20939,0.24746 0.31419,0.53318 0.31419,0.85679 0,0.39975 -0.1048,0.7517 -0.31419,1.05627 -0.24746,0.28553 -0.56136,0.4284 -0.94206,0.4284 -0.34264,0 -0.63775,-0.14287 -0.88522,-0.4284 -0.24746,-0.30457 -0.37155,-0.65652 -0.37156,-1.05627 1e-5,-0.32361 0.1241,-0.60933 0.37156,-0.85679 0.24747,-0.24746 0.56135,-0.37104 0.94206,-0.37104 z m -17.10335,5.5392 v 9.85108 c 0,0.3807 0.1048,0.7045 0.31419,0.971 0.22843,0.24746 0.48548,0.37103 0.77102,0.37103 h 0.51366 v 0.5426 h -5.681823 v -0.0284 -0.51418 h 0.542602 c 0.361671,0 0.675571,-0.12357 0.942061,-0.37103 0.24747,-0.2665 0.37104,-0.5903 0.37104,-0.971 v -7.45226 c 0,-0.15229 -0.0568,-0.29515 -0.17105,-0.4284 -0.11421,-0.13325 -0.27637,-0.19999 -0.48576,-0.19999 h -1.198893 v -0.39946 z m 18.2454,0 v 9.85108 c 0,0.3807 0.1048,0.7045 0.31419,0.971 0.22843,0.24746 0.48548,0.37103 0.77102,0.37103 h 0.51366 v 0.5426 h -5.68183 v -0.0284 -0.51418 h 0.54261 c 0.36167,0 0.67556,-0.12357 0.94206,-0.37103 0.24746,-0.2665 0.37104,-0.5903 0.37104,-0.971 v -7.45226 c 0,-0.15229 -0.0568,-0.29515 -0.17105,-0.4284 -0.11422,-0.13325 -0.27585,-0.19999 -0.48524,-0.19999 h -1.19942 v -0.39946 z m -10.67893,0.0289 c 1.40862,0 2.50305,0.23776 3.28351,0.71365 h 2.59881 v 0.94206 h -1.91306 c 0.17132,0.15228 0.28551,0.44739 0.34262,0.88521 0.13324,0.41878 0.19947,0.90422 0.19947,1.45625 0,1.08502 -0.39001,2.00843 -1.17047,2.76985 -0.79949,0.76142 -1.75107,1.14205 -2.85513,1.14205 -0.78046,0 -1.32324,-0.0574 -1.6278,-0.17156 l -0.37104,0.37155 c -0.62817,0.64721 -0.94258,1.0659 -0.94258,1.25625 0,0.22843 0.28573,0.42813 0.8568,0.59945 0.57106,0.17132 1.2661,0.25735 2.08462,0.25735 1.78934,0 3.13093,0.20909 4.0256,0.62787 0.9137,0.47589 1.37097,1.14224 1.37097,1.99884 0,1.35152 -0.60952,2.43656 -1.82779,3.25511 -1.25635,0.79949 -2.92172,1.19941 -4.9966,1.19941 -1.19923,0 -2.22745,-0.24768 -3.08405,-0.74261 -0.89466,-0.51395 -1.34152,-1.13286 -1.34152,-1.85621 0,-0.51396 0.22839,-1.03745 0.68523,-1.57044 0.4759,-0.533 1.06561,-1.00853 1.76992,-1.42731 -0.32361,-0.13325 -0.59005,-0.32356 -0.79943,-0.57102 -0.2665,-0.24746 -0.39946,-0.53319 -0.39946,-0.8568 0,-0.41878 0.20909,-0.87554 0.62787,-1.37046 0.38071,-0.49492 0.89481,-0.96158 1.54202,-1.39939 -0.66624,-0.2094 -1.20851,-0.66615 -1.62729,-1.37046 -0.43781,-0.68528 -0.65681,-1.47522 -0.65681,-2.36988 0,-1.00889 0.4187,-1.89372 1.25626,-2.65514 0.83756,-0.74238 1.8272,-1.11362 2.96933,-1.11362 z m -18.90221,0.82785 c -0.856599,0 -1.589175,0.39992 -2.198315,1.19941 -0.628168,0.79949 -0.942578,1.77036 -0.942578,2.91248 0,1.56092 0.333182,2.90251 0.999421,4.0256 0.66624,1.08502 1.446787,1.62781 2.34146,1.62781 0.437814,0 0.847121,-0.1048 1.22783,-0.3142 0.399749,-0.22842 0.770988,-0.54232 1.113629,-0.94206 v -6.79597 c -0.304573,-0.53299 -0.685202,-0.95168 -1.14205,-1.25625 -0.418785,-0.30457 -0.885444,-0.45682 -1.399397,-0.45682 z m 18.70222,0.14263 c -0.49493,0 -0.92301,0.20021 -1.28468,0.59996 -0.36167,0.43781 -0.5426,0.95141 -0.5426,1.54151 0,1.1231 0.27635,2.07519 0.82837,2.85564 0.533,0.74239 1.16078,1.11363 1.88412,1.11363 0.51397,0 0.96133,-0.20961 1.34204,-0.62839 0.34264,-0.39974 0.51418,-0.90395 0.51418,-1.51309 0,-1.12309 -0.27583,-2.05589 -0.82785,-2.79827 -0.533,-0.78046 -1.1712,-1.17099 -1.91358,-1.17099 z m -1.8557,10.87892 c -0.38072,0.47589 -0.69461,0.90397 -0.94206,1.28468 -0.2094,0.38071 -0.3142,0.66644 -0.3142,0.85679 0,0.47589 0.38063,0.90448 1.14205,1.2852 0.72335,0.34263 1.58941,0.51366 2.59829,0.51366 1.1802,0 2.25586,-0.24716 3.22668,-0.74207 0.97081,-0.51396 1.45624,-1.05675 1.45624,-1.62781 0,-0.45686 -0.29512,-0.81871 -0.88522,-1.08521 -0.66624,-0.24746 -1.59904,-0.37104 -2.79828,-0.37104 z m -21.101041,3.00292 v 15.4187 c 0,0.38071 0.124094,0.70451 0.371554,0.97099 0.285533,0.24747 0.590039,0.37103 0.913638,0.37103 h 0.542605 v 0.54261 h -5.910752 v -0.0284 -0.51419 h 0.542602 c 0.361675,0 0.675563,-0.12356 0.942062,-0.37103 0.24746,-0.26648 0.371555,-0.59028 0.371555,-0.97099 V 70.83218 c 0,-0.28554 -0.09542,-0.54258 -0.285772,-0.77102 -0.133246,-0.22842 -0.323559,-0.34261 -0.571023,-0.34261 h -0.999424 v -0.5426 z m 8.166428,5.59655 c 1.37056,0 2.531734,0.53289 3.483506,1.59887 0.970817,1.02794 1.456247,2.32259 1.456247,3.88348 h -7.909082 c 0,1.21827 0.409305,2.28404 1.227833,3.19775 0.799492,0.87564 1.769835,1.3136 2.911965,1.3136 0.76142,0 1.475232,-0.22836 2.141474,-0.68521 0.704315,-0.41879 1.29454,-1.04709 1.77043,-1.88466 l 0.45682,0.3142 c -0.34264,1.25634 -1.02777,2.28404 -2.055687,3.08353 -1.027911,0.76142 -2.198478,1.14258 -3.511928,1.14258 -1.351521,0 -2.503316,-0.59024 -3.455088,-1.77044 -0.970812,-1.19925 -1.45624,-2.64615 -1.45624,-4.3403 0,-1.57996 0.485428,-2.96011 1.45624,-4.14033 0.951772,-1.14213 2.112955,-1.71307 3.48351,-1.71307 z m 11.678353,0 c 1.40863,0 2.50306,0.23778 3.28352,0.71366 h 2.59829 v 0.94257 h -1.91306 c 0.17132,0.15227 0.28551,0.44741 0.34262,0.88522 0.13325,0.41878 0.19998,0.90421 0.19998,1.45624 0,1.08503 -0.39001,2.00792 -1.17047,2.76934 -0.79948,0.76142 -1.75158,1.14205 -2.85564,1.14205 -0.78046,0 -1.32272,-0.0568 -1.62729,-0.17105 l -0.37155,0.37105 c -0.62817,0.6472 -0.94206,1.0659 -0.94206,1.25624 0,0.22844 0.28573,0.42865 0.85679,0.59997 0.57107,0.17132 1.26559,0.25683 2.08411,0.25683 1.78934,0 3.13144,0.2096 4.02611,0.62839 0.9137,0.47587 1.37046,1.14173 1.37046,1.99831 0,1.35152 -0.609,2.43658 -1.82727,3.25512 -1.25634,0.79949 -2.92224,1.19941 -4.99712,1.19941 -1.19923,0 -2.22693,-0.24768 -3.08353,-0.74261 -0.89467,-0.51395 -1.34203,-1.13233 -1.34203,-1.85568 0,-0.51398 0.22838,-1.03746 0.68522,-1.57046 0.4759,-0.53298 1.06612,-1.00904 1.77044,-1.42782 -0.32361,-0.13325 -0.59005,-0.32356 -0.79944,-0.57103 -0.2665,-0.24746 -0.39997,-0.53266 -0.39997,-0.85627 0,-0.41878 0.2096,-0.87606 0.62838,-1.37096 0.38072,-0.49493 0.89482,-0.9611 1.54203,-1.39888 -0.66625,-0.20942 -1.20903,-0.66617 -1.62781,-1.37046 -0.43781,-0.6853 -0.65681,-1.47524 -0.65681,-2.3699 0,-1.00889 0.4187,-1.89424 1.25626,-2.65565 0.83756,-0.74237 1.82771,-1.11363 2.96984,-1.11363 z m 12.93461,0 c 1.56092,0 2.90302,0.57094 4.02611,1.71307 1.06599,1.16117 1.59887,2.54135 1.59887,4.14033 0,1.69415 -0.53288,3.14105 -1.59887,4.3403 -1.12309,1.1802 -2.48448,1.77044 -4.08347,1.77044 -1.52284,0 -2.82636,-0.59024 -3.91139,-1.77044 -1.10406,-1.19925 -1.65623,-2.64615 -1.65623,-4.3403 0,-1.59898 0.55217,-2.97916 1.65623,-4.14033 1.08503,-1.14213 2.40784,-1.71307 3.96875,-1.71307 z m -24.755592,0.82785 c -0.628172,0 -1.189723,0.36187 -1.68465,1.08522 -0.461513,0.62065 -0.829596,1.53537 -1.104842,2.74142 h 5.644616 c -0.19036,-1.08503 -0.5616,-1.99903 -1.113626,-2.74142 -0.513961,-0.72335 -1.094291,-1.08522 -1.741498,-1.08522 z m 24.298772,0 c -0.81852,0 -1.50417,0.44738 -2.0562,1.34205 -0.5901,0.89468 -0.8847,1.97971 -0.8847,3.25509 0,1.57996 0.37124,2.94134 1.11363,4.08347 0.78045,1.10408 1.68457,1.65571 2.71249,1.65571 0.8566,0 1.5605,-0.47551 2.11253,-1.4273 0.60914,-0.93273 0.91416,-2.06576 0.91416,-3.39823 0,-1.54188 -0.39054,-2.8454 -1.17099,-3.91138 -0.76142,-1.06601 -1.67493,-1.59941 -2.74092,-1.59941 z m -12.67778,0.14317 c -0.49492,0 -0.923,0.19968 -1.28467,0.59944 -0.36167,0.4378 -0.5426,0.95191 -0.5426,1.54201 0,1.12311 0.27583,2.07468 0.82785,2.85512 0.533,0.7424 1.16129,1.11363 1.88464,1.11363 0.51396,0 0.96133,-0.20907 1.34204,-0.62785 0.34264,-0.39976 0.51366,-0.90448 0.51366,-1.5136 0,-1.12311 -0.27583,-2.0559 -0.82785,-2.79829 -0.533,-0.78047 -1.17068,-1.17046 -1.91307,-1.17046 z m -1.8557,10.8789 c -0.3807,0.4759 -0.69511,0.90397 -0.94257,1.28468 -0.2094,0.38071 -0.3142,0.66646 -0.3142,0.8568 0,0.47588 0.38115,0.90395 1.14257,1.28468 0.72335,0.34264 1.58941,0.51417 2.59829,0.51417 1.1802,0 2.25535,-0.24768 3.22616,-0.74258 0.97081,-0.51395 1.45624,-1.05675 1.45624,-1.62782 0,-0.45683 -0.29511,-0.81817 -0.88522,-1.08469 -0.66624,-0.24746 -1.59852,-0.37102 -2.79776,-0.37102 z"
       inkscape:label="text_outline"
       sodipodi:insensitive="true" />
  </g>
</svg>
