<?xml version="1.0" encoding="UTF-8" standalone="no"?>
<!-- Created with Inkscape (http://www.inkscape.org/) -->

<svg
   width="73.723862mm"
   height="48.782581mm"
   viewBox="0 0 73.723864 48.782575"
   version="1.1"
   id="svg1"
   inkscape:version="1.3.2 (091e20e, 2023-11-25, custom)"
   sodipodi:docname="liser_rescom_RSS.svg"
   xml:space="preserve"
   xmlns:inkscape="http://www.inkscape.org/namespaces/inkscape"
   xmlns:sodipodi="http://sodipodi.sourceforge.net/DTD/sodipodi-0.dtd"
   xmlns:xlink="http://www.w3.org/1999/xlink"
   xmlns="http://www.w3.org/2000/svg"
   xmlns:svg="http://www.w3.org/2000/svg"><sodipodi:namedview
     id="namedview1"
     pagecolor="#ffffff"
     bordercolor="#000000"
     borderopacity="0.25"
     inkscape:showpageshadow="2"
     inkscape:pageopacity="0.0"
     inkscape:pagecheckerboard="0"
     inkscape:deskcolor="#d1d1d1"
     inkscape:document-units="mm"
     inkscape:zoom="0.7313903"
     inkscape:cx="231.06678"
     inkscape:cy="174.32553"
     inkscape:window-width="1920"
     inkscape:window-height="1017"
     inkscape:window-x="1912"
     inkscape:window-y="-8"
     inkscape:window-maximized="1"
     inkscape:current-layer="layer1"
     showguides="true"><sodipodi:guide
       position="5.291664,44.6898"
       orientation="1,0"
       id="guide17"
       inkscape:locked="false" /><sodipodi:guide
       position="29.782881,44.945599"
       orientation="1,0"
       id="guide18"
       inkscape:locked="false" /><sodipodi:guide
       position="46.683257,43.490912"
       orientation="0,-1"
       id="guide19"
       inkscape:locked="false" /><sodipodi:guide
       position="58.833697,5.2916656"
       orientation="0,-1"
       id="guide20"
       inkscape:locked="false" /><sodipodi:guide
       position="40.366212,37.527435"
       orientation="1,0"
       id="guide21"
       inkscape:locked="false" /><sodipodi:guide
       position="68.432182,33.950667"
       orientation="1,0"
       id="guide22"
       inkscape:locked="false" /><sodipodi:guide
       position="73.723852,33.317598"
       orientation="1,0"
       id="guide23"
       inkscape:locked="false" /><inkscape:page
       x="0"
       y="0"
       width="73.723869"
       height="48.782578"
       id="page23"
       margin="0"
       bleed="0" /><inkscape:page
       x="83.723869"
       y="0"
       width="73.723869"
       height="48.782578"
       id="page24"
       margin="0"
       bleed="0" /><inkscape:page
       x="167.44774"
       y="0"
       width="73.723869"
       height="48.782578"
       id="page50"
       margin="0"
       bleed="0" /><inkscape:page
       x="83.723869"
       y="112.50547"
       width="73.723869"
       height="48.782578"
       id="page86"
       margin="0"
       bleed="0" /><inkscape:page
       x="83.723869"
       y="55.710102"
       width="73.723869"
       height="48.782578"
       id="page9"
       margin="0"
       bleed="0" /><inkscape:page
       x="167.44774"
       y="55.710102"
       width="73.723869"
       height="48.782578"
       id="page15"
       margin="0"
       bleed="0" /></sodipodi:namedview><defs
     id="defs1"><rect
       x="109.38072"
       y="72.464729"
       width="121.68605"
       height="98.44265"
       id="rect2" /><linearGradient
       id="linearGradient1"
       inkscape:collect="always"><stop
         style="stop-color:#ee7b00;stop-opacity:1;"
         offset="0"
         id="stop1" /><stop
         style="stop-color:#b0271a;stop-opacity:1;"
         offset="1"
         id="stop2" /></linearGradient><linearGradient
       inkscape:collect="always"
       xlink:href="#linearGradient1"
       id="linearGradient2"
       x1="33.281361"
       y1="77.415344"
       x2="105"
       y2="77.415344"
       gradientUnits="userSpaceOnUse"
       gradientTransform="matrix(0.48905767,0,0,1.1053291,67.908795,-54.612377)" /><rect
       x="109.38072"
       y="72.464729"
       width="160.59969"
       height="104.24344"
       id="rect3" /><rect
       x="109.38072"
       y="72.464729"
       width="121.68605"
       height="98.44265"
       id="rect26" /><linearGradient
       inkscape:collect="always"
       xlink:href="#linearGradient1"
       id="linearGradient26"
       gradientUnits="userSpaceOnUse"
       gradientTransform="matrix(0.48905767,0,0,1.1053291,67.908795,-54.612377)"
       x1="33.281361"
       y1="77.415344"
       x2="105"
       y2="77.415344" /><rect
       x="109.38072"
       y="72.464729"
       width="121.68605"
       height="98.44265"
       id="rect52" /><linearGradient
       inkscape:collect="always"
       xlink:href="#linearGradient1"
       id="linearGradient52"
       gradientUnits="userSpaceOnUse"
       gradientTransform="matrix(0.48905767,0,0,1.1053291,67.908795,-54.612377)"
       x1="33.281361"
       y1="77.415344"
       x2="105"
       y2="77.415344" /><linearGradient
       inkscape:collect="always"
       xlink:href="#linearGradient1"
       id="linearGradient9"
       gradientUnits="userSpaceOnUse"
       gradientTransform="matrix(0.53890189,0,0,1.1053291,101.32447,-54.612376)"
       x1="33.281361"
       y1="77.415344"
       x2="105"
       y2="77.415344" /><linearGradient
       inkscape:collect="always"
       xlink:href="#linearGradient1"
       id="linearGradient15"
       gradientUnits="userSpaceOnUse"
       gradientTransform="matrix(0.49285637,0,0,1.1053291,67.646155,-54.612377)"
       x1="33.281361"
       y1="77.415344"
       x2="105"
       y2="77.415344" /></defs><g
     inkscape:label="Layer 1"
     inkscape:groupmode="layer"
     id="layer1"
     transform="translate(-84.185295,-6.5657711)"><g
       id="g24"
       transform="translate(167.44773)"><rect
         style="fill:#000000;stroke:none;stroke-width:0.999999;stroke-linecap:round;stroke-linejoin:round;stroke-miterlimit:10;stroke-dasharray:none;stroke-opacity:1"
         id="rect17"
         width="38.649303"
         height="48.782581"
         x="119.25985"
         y="6.5657711" /><rect
         style="fill:url(#linearGradient2);fill-opacity:1;stroke:none;stroke-width:0.264583;stroke-linecap:round;stroke-linejoin:round;stroke-miterlimit:10;-inkscape-stroke:none"
         id="rect1"
         width="35.074547"
         height="48.782578"
         x="84.185295"
         y="6.5657711" /><g
         id="g50"
         transform="translate(-2.671176e-6,1.8989026)"><path
           id="path43"
           style="font-size:26.6667px;font-family:'Franklin Gothic Medium Cond';-inkscape-font-specification:'Franklin Gothic Medium Cond';text-align:center;text-anchor:middle;white-space:pre;fill:#ffffff;stroke-width:0.264583;stroke-linecap:round;stroke-linejoin:round;stroke-miterlimit:10"
           d="m 93.509709,43.274376 -0.868663,0.301553 q -0.153026,-0.48609 -0.405074,-0.715631 -0.247547,-0.234042 -0.679627,-0.234042 -0.400576,0 -0.621116,0.238542 -0.21604,0.234043 -0.21604,0.5401 0,0.337565 0.243046,0.5401 0.247544,0.198038 0.981181,0.477089 0.625617,0.238546 0.963179,0.454586 0.337565,0.21604 0.544604,0.580608 0.211539,0.360068 0.211539,0.837157 0,0.774142 -0.549104,1.318746 -0.544601,0.5446 -1.530285,0.5446 -1.701317,0 -2.10639,-1.719322 l 0.909169,-0.256545 q 0.238542,1.13421 1.242229,1.13421 0.490594,0 0.742639,-0.252048 0.256548,-0.256548 0.256548,-0.630118 0,-0.27455 -0.175532,-0.508592 -0.175531,-0.234046 -0.873164,-0.499595 -0.738138,-0.279051 -1.066698,-0.472588 -0.32406,-0.193534 -0.553602,-0.571604 -0.229545,-0.37807 -0.229545,-0.859663 0,-0.733633 0.508596,-1.233228 0.513097,-0.499592 1.359255,-0.499592 1.498778,0 1.912855,1.485277 z m 1.053197,-1.372756 h 3.519653 v 0.81465 h -2.502465 v 1.755326 h 1.962366 v 0.819155 h -1.962366 v 1.921856 h 2.542974 v 0.832656 h -3.560162 z m 4.239789,0 h 1.849845 q 1.00369,0 1.48078,0.454582 0.47708,0.454586 0.47708,1.305245 0,1.134209 -0.94067,1.606797 l 1.16572,2.777019 h -1.10271 l -0.95868,-2.565479 h -0.954177 v 2.565479 h -1.017188 z m 1.017188,0.787647 v 2.002873 h 0.778647 q 0.52209,0 0.76514,-0.288055 0.24755,-0.288052 0.24755,-0.75164 0,-0.963178 -1.00369,-0.963178 z M 103.6681,41.90162 h 1.01719 v 6.143643 h -1.01719 z m 2.19641,0 h 3.51965 v 0.81465 h -2.50246 v 1.755326 h 1.96236 v 0.819155 h -1.96236 v 1.921856 h 2.54297 v 0.832656 h -3.56016 z m 7.89897,1.372756 -0.86866,0.301553 q -0.15303,-0.48609 -0.40508,-0.715631 -0.24755,-0.234042 -0.67963,-0.234042 -0.40057,0 -0.62111,0.238542 -0.21604,0.234043 -0.21604,0.5401 0,0.337565 0.24304,0.5401 0.24755,0.198038 0.98119,0.477089 0.62561,0.238546 0.96318,0.454586 0.33756,0.21604 0.5446,0.580608 0.21154,0.360068 0.21154,0.837157 0,0.774142 -0.5491,1.318746 -0.54461,0.5446 -1.53029,0.5446 -1.70132,0 -2.10639,-1.719322 l 0.90917,-0.256545 q 0.23854,1.13421 1.24223,1.13421 0.49059,0 0.74264,-0.252048 0.25654,-0.256548 0.25654,-0.630118 0,-0.27455 -0.17553,-0.508592 -0.17553,-0.234046 -0.87316,-0.499595 -0.73814,-0.279051 -1.0667,-0.472588 -0.32406,-0.193534 -0.5536,-0.571604 -0.22954,-0.37807 -0.22954,-0.859663 0,-0.733633 0.50859,-1.233228 0.51309,-0.499592 1.35925,-0.499592 1.49878,0 1.91286,1.485277 z" /><path
           id="path34"
           style="font-size:26.6667px;font-family:'Franklin Gothic Medium Cond';-inkscape-font-specification:'Franklin Gothic Medium Cond';text-align:center;text-anchor:middle;white-space:pre;fill:#ffffff;stroke-width:0.264583;stroke-linecap:round;stroke-linejoin:round;stroke-miterlimit:10"
           d="m 92.563773,36.973466 -0.664903,0.230822 q -0.117134,-0.37207 -0.31006,-0.547769 -0.189481,-0.179147 -0.52021,-0.179147 -0.306613,0 -0.475422,0.182592 -0.165367,0.179144 -0.165367,0.413411 0,0.258382 0.186036,0.413411 0.189481,0.151586 0.751033,0.365181 0.478867,0.182592 0.737251,0.347956 0.258381,0.165365 0.416856,0.444418 0.16192,0.275606 0.16192,0.640787 0,0.592558 -0.420301,1.009414 -0.416859,0.416859 -1.171335,0.416859 -1.302247,0 -1.612307,-1.316029 L 90.172874,39.199 q 0.182591,0.868167 0.950849,0.868167 0.375515,0 0.568441,-0.192926 0.196369,-0.196371 0.196369,-0.482314 0,-0.210151 -0.134358,-0.389298 -0.134358,-0.179144 -0.668348,-0.382405 -0.564997,-0.213595 -0.816489,-0.361735 -0.248049,-0.14814 -0.423748,-0.437528 -0.1757,-0.289389 -0.1757,-0.658014 0,-0.561552 0.389295,-0.943957 0.392742,-0.382407 1.040421,-0.382407 1.147218,0 1.464167,1.136883 z m 0.806154,-1.050756 h 2.694067 v 0.623565 h -1.915475 v 1.343588 h 1.502063 v 0.627007 h -1.502063 v 1.47106 H 96.095 v 0.637341 h -2.725073 z m 3.228059,0 h 1.154108 l 0.937066,3.389979 0.961184,-3.389979 h 1.105876 v 4.702561 h -0.73036 V 36.61173 l -1.116212,4.013541 H 98.344652 L 97.24911,36.608285 v 4.016986 h -0.651124 z m 5.064294,0 h 0.7786 v 4.702561 h -0.7786 z m 1.65709,0 h 0.9164 l 1.54685,3.389979 V 35.92271 h 0.65112 v 4.702561 h -0.72691 L 103.9705,36.85978 v 3.765491 h -0.65113 z m 4.9575,0 h 0.87161 l 1.26091,4.702561 h -0.78893 l -0.29627,-1.178224 h -1.3746 l -0.28939,1.178224 h -0.74414 z m 0.89229,2.91111 -0.53399,-2.153187 -0.53055,2.153187 z m 1.71221,-2.91111 h 1.41594 q 0.76825,0 1.13343,0.347956 0.36518,0.347956 0.36518,0.99908 0,0.868164 -0.72002,1.2299 l 0.89228,2.125625 h -0.84405 l -0.73381,-1.963705 h -0.73036 v 1.963705 h -0.77859 z m 0.77859,0.602893 v 1.53307 h 0.596 q 0.39964,0 0.58567,-0.220485 0.18948,-0.220488 0.18948,-0.575334 0,-0.737251 -0.76826,-0.737251 z" /><path
           id="text2"
           style="font-size:26.6667px;font-family:'Franklin Gothic Medium Cond';-inkscape-font-specification:'Franklin Gothic Medium Cond';text-align:center;text-anchor:middle;white-space:pre;fill:#ffffff;stroke-width:0.264583;stroke-linecap:round;stroke-linejoin:round;stroke-miterlimit:10"
           d="m 89.476963,29.525557 h 1.547409 q 0.839591,0 1.238679,0.380264 0.399089,0.380263 0.399089,1.091845 0,0.948776 -0.786882,1.344099 l 0.975131,2.322996 h -0.922423 l -0.80194,-2.146042 h -0.798177 v 2.146042 h -0.850886 z m 0.850886,0.658873 v 1.675417 h 0.651343 q 0.436738,0 0.640046,-0.240959 0.207075,-0.240959 0.207075,-0.628752 0,-0.805706 -0.839592,-0.805706 z m 3.219062,-0.658873 h 2.944216 v 0.681462 h -2.09333 v 1.468344 h 1.641533 v 0.685228 h -1.641533 v 1.607647 h 2.127216 v 0.696523 h -2.978102 z m 6.607549,1.148321 -0.726646,0.252253 q -0.128007,-0.406618 -0.338847,-0.598632 -0.207075,-0.195779 -0.568513,-0.195779 -0.335085,0 -0.519568,0.199544 -0.180719,0.195779 -0.180719,0.451798 0,0.282374 0.203311,0.451798 0.207071,0.165659 0.820764,0.399088 0.523333,0.199544 0.805706,0.380264 0.282376,0.180719 0.455562,0.485682 0.17696,0.3012 0.17696,0.700287 0,0.647578 -0.459332,1.103141 -0.455563,0.455563 -1.280095,0.455563 -1.423164,0 -1.76201,-1.438224 l 0.760525,-0.214604 q 0.199543,0.948777 1.039135,0.948777 0.410385,0 0.621223,-0.21084 0.214604,-0.214604 0.214604,-0.527098 0,-0.229664 -0.146834,-0.425443 -0.146833,-0.195779 -0.730408,-0.417913 -0.617457,-0.233429 -0.892301,-0.395324 -0.271079,-0.161894 -0.463091,-0.478152 -0.192017,-0.316259 -0.192017,-0.719112 0,-0.613693 0.425445,-1.031606 0.429208,-0.417913 1.137026,-0.417913 1.253738,0 1.60012,1.242445 z m 3.46378,2.262755 0.78311,0.109184 q -0.24095,1.713068 -1.68294,1.713068 -0.93748,0 -1.39681,-0.719112 -0.45933,-0.719112 -0.45933,-1.923907 0,-1.29892 0.48568,-1.991676 0.48569,-0.692757 1.40058,-0.692757 1.41563,0 1.66036,1.754482 l -0.79065,0.116715 q -0.12801,-1.167146 -0.86594,-1.167146 -0.98643,0 -0.98643,2.029327 0,1.890023 0.98643,1.890023 0.39531,0 0.58733,-0.286139 0.19578,-0.289905 0.27861,-0.832062 z m 5.01119,-0.843356 q 0,1.317744 -0.47062,1.991675 -0.47062,0.673933 -1.36668,0.673933 -0.89983,0 -1.37799,-0.670167 -0.47815,-0.673932 -0.47815,-1.995441 0,-1.310215 0.47438,-1.984147 0.47439,-0.677697 1.37799,-0.677697 0.8923,0 1.36669,0.673932 0.47438,0.670166 0.47438,1.987912 z m -0.89229,0 q 0,-0.914892 -0.21461,-1.438224 -0.21083,-0.527099 -0.7417,-0.527099 -0.53086,0 -0.74171,0.527099 -0.21083,0.527097 -0.21083,1.438224 0,0.896066 0.20707,1.430693 0.20708,0.534628 0.75677,0.534628 0.5158,0 0.7304,-0.515802 0.21461,-0.519569 0.21461,-1.449519 z m 1.68671,-2.56772 h 1.26127 l 1.02407,3.704744 1.05044,-3.704744 h 1.20855 v 5.139204 H 113.17 v -4.386207 l -1.21985,4.386207 h -0.61745 l -1.19727,-4.389972 v 4.389972 h -0.71158 z" /></g><text
         xml:space="preserve"
         style="font-style:normal;font-variant:normal;font-weight:normal;font-stretch:normal;font-size:11.914px;font-family:'Franklin Gothic Medium Cond';-inkscape-font-specification:'Franklin Gothic Medium Cond';text-align:center;text-anchor:middle;fill:#ffffff;stroke:none;stroke-width:1;stroke-linecap:round;stroke-linejoin:round;stroke-miterlimit:10;stroke-dasharray:none;stroke-opacity:1"
         x="101.49861"
         y="19.943623"
         id="text16"><tspan
           sodipodi:role="line"
           id="tspan16"
           style="font-style:normal;font-variant:normal;font-weight:normal;font-stretch:normal;font-size:11.914px;font-family:'Franklin Gothic Medium Cond';-inkscape-font-specification:'Franklin Gothic Medium Cond';fill:#ffffff;stroke-width:1"
           x="101.49861"
           y="19.943623">LISER</tspan></text><path
         id="path14"
         style="fill:#ffffff;stroke:#000000;stroke-width:1;stroke-linecap:round;stroke-linejoin:round;stroke-miterlimit:10;stroke-dasharray:none;stroke-opacity:1"
         d="m 125.05152,39.004465 v 10.55222 h 5.4132 V 20.671307 h 5.41319 v 28.885379 h 5.4132 V 12.357437 h 5.41319 v 37.199248 h 5.41318 V 26.909227"
         sodipodi:nodetypes="cccccccccccc" /></g><g
       id="g26"
       transform="translate(83.723867)"><rect
         style="fill:#000000;stroke:none;stroke-width:0.999999;stroke-linecap:round;stroke-linejoin:round;stroke-miterlimit:10;stroke-dasharray:none;stroke-opacity:1"
         id="rect24"
         width="38.649303"
         height="48.782581"
         x="119.25985"
         y="6.5657711" /><rect
         style="fill:url(#linearGradient26);fill-opacity:1;stroke:none;stroke-width:0.264583;stroke-linecap:round;stroke-linejoin:round;stroke-miterlimit:10;-inkscape-stroke:none"
         id="rect25"
         width="35.074547"
         height="48.782578"
         x="84.185295"
         y="6.5657711" /><text
         xml:space="preserve"
         transform="matrix(0.26458333,0,0,0.26458333,56.694571,6.7266928)"
         id="text25"
         style="font-style:normal;font-variant:normal;font-weight:normal;font-stretch:normal;font-size:26.6667px;font-family:'Franklin Gothic Book';-inkscape-font-specification:'Franklin Gothic Book, ';white-space:pre;shape-inside:url(#rect26);display:inline;fill:#ffffff;stroke:none;stroke-linecap:round;stroke-linejoin:round;stroke-miterlimit:10;-inkscape-stroke:none"
         x="46.282612"
         y="0"><tspan
           x="126.16108"
           y="96.77462"
           id="tspan2"><tspan
             style="font-family:'Franklin Gothic Medium Cond';-inkscape-font-specification:'Franklin Gothic Medium Cond';text-align:center;text-anchor:middle"
             id="tspan1">RESCOM
</tspan></tspan><tspan
           x="123.27696"
           y="130.10799"
           id="tspan4"><tspan
             style="font-family:'Franklin Gothic Medium Cond';-inkscape-font-specification:'Franklin Gothic Medium Cond';text-align:center;text-anchor:middle"
             id="tspan3">SEMINAR
</tspan></tspan><tspan
           x="134.11031"
           y="163.44137"
           id="tspan6"><tspan
             style="font-family:'Franklin Gothic Medium Cond';-inkscape-font-specification:'Franklin Gothic Medium Cond';text-align:center;text-anchor:middle"
             id="tspan5">SERIES</tspan></tspan></text><text
         xml:space="preserve"
         style="font-style:normal;font-variant:normal;font-weight:normal;font-stretch:normal;font-size:9.87778px;font-family:'Franklin Gothic Medium Cond';-inkscape-font-specification:'Franklin Gothic Medium Cond';text-align:center;text-anchor:middle;fill:#ffffff;stroke:none;stroke-width:1;stroke-linecap:round;stroke-linejoin:round;stroke-miterlimit:10;stroke-dasharray:none;stroke-opacity:1"
         x="101.72256"
         y="19.605452"
         id="text26"><tspan
           sodipodi:role="line"
           id="tspan26"
           style="font-style:normal;font-variant:normal;font-weight:normal;font-stretch:normal;font-size:9.87778px;font-family:'Franklin Gothic Medium Cond';-inkscape-font-specification:'Franklin Gothic Medium Cond';fill:#ffffff;stroke-width:1"
           x="101.72256"
           y="19.605452">LISER</tspan></text><path
         id="path26"
         style="fill:#ffffff;stroke:#000000;stroke-width:1;stroke-linecap:round;stroke-linejoin:round;stroke-miterlimit:10;stroke-dasharray:none;stroke-opacity:1"
         d="m 125.05152,39.004465 v 10.55222 h 5.4132 V 20.671307 h 5.41319 v 28.885379 h 5.4132 V 12.357437 h 5.41319 v 37.199248 h 5.41318 V 26.909227"
         sodipodi:nodetypes="cccccccccccc" /></g><g
       id="g52"
       transform="translate(83.723867,112.64207)"><rect
         style="fill:#000000;stroke:none;stroke-width:0.999999;stroke-linecap:round;stroke-linejoin:round;stroke-miterlimit:10;stroke-dasharray:none;stroke-opacity:1"
         id="rect50"
         width="38.649303"
         height="48.782581"
         x="119.25985"
         y="6.5657711" /><rect
         style="fill:url(#linearGradient52);fill-opacity:1;stroke:none;stroke-width:0.264583;stroke-linecap:round;stroke-linejoin:round;stroke-miterlimit:10;-inkscape-stroke:none"
         id="rect51"
         width="35.074547"
         height="48.782578"
         x="84.185295"
         y="6.5657711" /><path
         id="path80"
         style="font-size:26.6667px;line-height:0.9;font-family:'Franklin Gothic Medium Cond';-inkscape-font-specification:'Franklin Gothic Medium Cond';text-align:center;text-anchor:middle;white-space:pre;fill:#ffffff;stroke-width:0.264583;stroke-linecap:round;stroke-linejoin:round;stroke-miterlimit:10"
         d="m 93.518238,45.172299 -0.870501,0.302195 q -0.153348,-0.487121 -0.405929,-0.717147 -0.24807,-0.234537 -0.681064,-0.234537 -0.401423,0 -0.622429,0.239047 -0.216497,0.234539 -0.216497,0.541241 0,0.338278 0.243561,0.541241 0.248068,0.198456 0.983255,0.478098 0.62694,0.23905 0.965214,0.455546 0.338279,0.216497 0.545755,0.581836 0.211987,0.360829 0.211987,0.838926 0,0.775779 -0.550265,1.321534 -0.545751,0.545751 -1.53352,0.545751 -1.704913,0 -2.110842,-1.722953 l 0.911091,-0.25709 q 0.239047,1.136607 1.244855,1.136607 0.491631,0 0.744209,-0.252581 0.25709,-0.257087 0.25709,-0.631449 0,-0.275131 -0.175902,-0.509668 -0.175903,-0.23454 -0.875011,-0.500651 -0.739698,-0.279641 -1.068952,-0.473584 -0.324745,-0.193946 -0.554772,-0.572815 -0.23003,-0.378869 -0.23003,-0.86148 0,-0.735184 0.50967,-1.235836 0.514181,-0.500647 1.362128,-0.500647 1.501945,0 1.916899,1.488416 z m 1.055423,-1.375657 h 3.527097 v 0.816372 h -2.507759 v 1.759036 h 1.96652 v 0.820887 h -1.96652 v 1.925919 h 2.548345 v 0.834416 h -3.567683 z m 4.248746,0 h 1.853753 q 1.00581,0 1.48391,0.455543 0.4781,0.455547 0.4781,1.308003 0,1.136611 -0.94267,1.610195 l 1.16818,2.782889 h -1.10504 l -0.9607,-2.570902 h -0.956184 v 2.570902 h -1.019349 z m 1.019349,0.789311 v 2.007107 h 0.780284 q 0.5232,0 0.76675,-0.288664 0.24808,-0.288661 0.24808,-0.753228 0,-0.965215 -1.00581,-0.965215 z m 3.856334,-0.789311 h 1.01935 v 6.15663 h -1.01935 z m 2.20106,0 h 3.52709 v 0.816372 h -2.50775 v 1.759036 h 1.96651 v 0.820887 h -1.96651 v 1.925919 h 2.54835 v 0.834416 h -3.56769 z m 7.91566,1.375657 -0.87049,0.302195 q -0.15335,-0.487121 -0.40593,-0.717147 -0.24807,-0.234537 -0.68107,-0.234537 -0.40141,0 -0.62242,0.239047 -0.2165,0.234539 -0.2165,0.541241 0,0.338278 0.24356,0.541241 0.24807,0.198456 0.98326,0.478098 0.62694,0.23905 0.96521,0.455546 0.33827,0.216497 0.54576,0.581836 0.21198,0.360829 0.21198,0.838926 0,0.775779 -0.55026,1.321534 -0.54575,0.545751 -1.53353,0.545751 -1.7049,0 -2.11083,-1.722953 l 0.91108,-0.25709 q 0.23906,1.136607 1.24486,1.136607 0.49163,0 0.74422,-0.252581 0.25707,-0.257087 0.25707,-0.631449 0,-0.275131 -0.17589,-0.509668 -0.1759,-0.23454 -0.87501,-0.500651 -0.7397,-0.279641 -1.06895,-0.473584 -0.32475,-0.193946 -0.55478,-0.572815 -0.23003,-0.378869 -0.23003,-0.86148 0,-0.735184 0.50968,-1.235836 0.51417,-0.500647 1.36212,-0.500647 1.50194,0 1.91689,1.488416 z" /><path
         id="path71"
         style="font-size:26.6667px;line-height:0.9;font-family:'Franklin Gothic Medium Cond';-inkscape-font-specification:'Franklin Gothic Medium Cond';text-align:center;text-anchor:middle;white-space:pre;fill:#ffffff;stroke-width:0.264583;stroke-linecap:round;stroke-linejoin:round;stroke-miterlimit:10"
         d="m 92.563768,38.533656 -0.664903,0.23082 q -0.117134,-0.37207 -0.31006,-0.547769 -0.189481,-0.179144 -0.52021,-0.179144 -0.306613,0 -0.475422,0.182589 -0.165367,0.179144 -0.165367,0.413411 0,0.258384 0.186036,0.413412 0.189481,0.151585 0.751033,0.36518 0.478867,0.182592 0.737251,0.347956 0.258381,0.165365 0.416856,0.444418 0.16192,0.275609 0.16192,0.640789 0,0.592556 -0.420301,1.009415 -0.416859,0.416856 -1.171335,0.416856 -1.302247,0 -1.612307,-1.316027 l 0.69591,-0.196371 q 0.182591,0.868164 0.950849,0.868164 0.375515,0 0.568441,-0.192926 0.196369,-0.196371 0.196369,-0.482314 0,-0.210151 -0.134358,-0.389295 -0.134358,-0.179147 -0.668348,-0.382408 -0.564997,-0.213595 -0.816489,-0.361735 -0.248049,-0.148138 -0.423748,-0.437526 -0.1757,-0.289388 -0.1757,-0.658016 0,-0.561549 0.389295,-0.943956 0.392742,-0.382405 1.040421,-0.382405 1.147218,0 1.464167,1.136882 z m 0.806154,-1.050755 h 2.694067 v 0.623562 h -1.915475 v 1.343588 h 1.502063 v 0.62701 h -1.502063 v 1.471057 h 1.946481 v 0.637344 h -2.725073 z m 3.228059,0 h 1.154108 l 0.937066,3.389976 0.961184,-3.389976 h 1.105871 v 4.702561 h -0.73036 v -4.013541 l -1.116207,4.013541 h -0.564996 l -1.095542,-4.016986 v 4.016986 h -0.651124 z m 5.064289,0 h 0.7786 v 4.702561 h -0.7786 z m 1.65709,0 h 0.9164 l 1.54685,3.389976 v -3.389976 h 0.65112 v 4.702561 h -0.72691 l -1.73633,-3.765494 v 3.765494 h -0.65113 z m 4.9575,0 h 0.87161 l 1.26091,4.702561 h -0.78893 l -0.29627,-1.178224 h -1.3746 l -0.28939,1.178224 h -0.74414 z m 0.89229,2.91111 -0.53399,-2.153187 -0.53055,2.153187 z m 1.71221,-2.91111 h 1.41594 q 0.76825,0 1.13343,0.347953 0.36518,0.347956 0.36518,0.99908 0,0.868164 -0.72002,1.2299 l 0.89228,2.125628 h -0.84405 l -0.73381,-1.963708 h -0.73036 v 1.963708 h -0.77859 z m 0.77859,0.602893 v 1.533069 h 0.596 q 0.39964,0 0.58567,-0.220487 0.18948,-0.220486 0.18948,-0.575332 0,-0.73725 -0.76826,-0.73725 z" /><path
         id="path60"
         style="font-size:26.6667px;line-height:0.9;font-family:'Franklin Gothic Medium Cond';-inkscape-font-specification:'Franklin Gothic Medium Cond';text-align:center;text-anchor:middle;white-space:pre;fill:#ffffff;stroke-width:0.264583;stroke-linecap:round;stroke-linejoin:round;stroke-miterlimit:10"
         d="m 89.476959,31.740798 h 1.254785 q 0.680821,0 1.004439,0.308353 0.323619,0.308354 0.323619,0.885372 0,0.769356 -0.638076,1.089921 l 0.790728,1.883707 h -0.747987 l -0.650289,-1.740215 h -0.647237 v 1.740215 h -0.689982 z m 0.689982,0.534276 v 1.358585 h 0.528167 q 0.354149,0 0.519013,-0.195391 0.167913,-0.195391 0.167913,-0.509851 0,-0.653343 -0.680817,-0.653343 z m 2.610317,-0.534276 h 2.387452 v 0.552593 h -1.697471 v 1.190672 h 1.33111 v 0.555648 h -1.33111 v 1.303632 h 1.724948 v 0.564808 h -2.414929 z m 5.358024,0.931167 -0.589229,0.20455 q -0.103802,-0.329725 -0.274771,-0.485427 -0.167914,-0.158757 -0.461002,-0.158757 -0.271718,0 -0.421315,0.16181 -0.146544,0.158755 -0.146544,0.36636 0,0.228977 0.164861,0.36636 0.167915,0.134333 0.665556,0.323619 0.424368,0.16181 0.653343,0.308354 0.228974,0.146544 0.369412,0.393838 0.143492,0.244241 0.143492,0.56786 0,0.525115 -0.372466,0.89453 -0.369413,0.369413 -1.038022,0.369413 -1.154036,0 -1.428807,-1.166249 l 0.616707,-0.174019 q 0.16181,0.769356 0.842631,0.769356 0.332776,0 0.503745,-0.170969 0.174022,-0.174022 0.174022,-0.427421 0,-0.186232 -0.119069,-0.344988 -0.119066,-0.158758 -0.592281,-0.338885 -0.500694,-0.189285 -0.723563,-0.320566 -0.219816,-0.131277 -0.37552,-0.387729 -0.155704,-0.256455 -0.155704,-0.583126 0,-0.497638 0.344992,-0.836523 0.34804,-0.338884 0.922005,-0.338884 1.016653,0 1.297527,1.007493 z m 0.714403,-0.931167 h 2.387445 v 0.552593 h -1.697468 v 1.190672 h 1.331108 v 0.555648 h -1.331108 v 1.303632 h 1.724938 v 0.564808 h -2.414915 z m 3.657495,0 h 0.77241 l 1.1174,4.167353 h -0.69914 l -0.26256,-1.044128 h -1.21814 l -0.25645,1.044128 h -0.65945 z m 0.79073,2.57979 -0.47322,-1.908131 -0.47015,1.908131 z m 1.51735,-2.57979 h 1.25478 q 0.68082,0 1.00444,0.308353 0.32362,0.308354 0.32362,0.885372 0,0.769356 -0.63809,1.089921 l 0.79073,1.883707 h -0.74798 l -0.65029,-1.740215 h -0.64724 v 1.740215 h -0.68997 z m 0.68997,0.534276 v 1.358585 h 0.52817 q 0.35415,0 0.51902,-0.195391 0.16791,-0.195391 0.16791,-0.509851 0,-0.653343 -0.68082,-0.653343 z m 4.64973,2.231747 0.63503,0.08854 q -0.1954,1.389119 -1.3647,1.389119 -0.76019,0 -1.13267,-0.583124 -0.37246,-0.583126 -0.37246,-1.560087 0,-1.053286 0.39384,-1.61504 0.39384,-0.561752 1.13572,-0.561752 1.14792,0 1.34637,1.4227 l -0.64113,0.09464 q -0.1038,-0.946431 -0.70219,-0.946431 -0.79989,0 -0.79989,1.645568 0,1.53261 0.79989,1.53261 0.32057,0 0.47627,-0.232028 0.15875,-0.235083 0.22592,-0.674715 z m 1.20594,-2.766023 h 0.68997 v 1.728 h 1.22731 v -1.728 h 0.68999 v 4.167353 h -0.68999 v -1.856229 h -1.22731 v 1.856229 h -0.68997 z" /><path
         id="text51"
         style="font-size:26.6667px;line-height:0.9;font-family:'Franklin Gothic Medium Cond';-inkscape-font-specification:'Franklin Gothic Medium Cond';text-align:center;text-anchor:middle;white-space:pre;fill:#ffffff;stroke-width:0.264583;stroke-linecap:round;stroke-linejoin:round;stroke-miterlimit:10"
         d="m 89.476958,25.01885 h 1.547408 q 0.839592,0 1.238679,0.380263 0.399089,0.380264 0.399089,1.091845 0,0.948776 -0.786883,1.344099 l 0.975131,2.322994 H 91.92796 l -0.801941,-2.146039 h -0.798176 v 2.146039 h -0.850885 z m 0.850885,0.658872 v 1.675417 h 0.651343 q 0.436738,0 0.640046,-0.240958 0.207075,-0.240959 0.207075,-0.628753 0,-0.805706 -0.839591,-0.805706 z m 3.219061,-0.658872 h 2.944215 v 0.681461 h -2.09333 v 1.468344 h 1.641533 v 0.685226 h -1.641533 v 1.607648 h 2.127216 v 0.696522 h -2.978101 z m 6.607536,1.14832 -0.726635,0.252254 q -0.128007,-0.406618 -0.338847,-0.598632 -0.207074,-0.19578 -0.568512,-0.19578 -0.335085,0 -0.519569,0.199545 -0.180719,0.195779 -0.180719,0.451798 0,0.282373 0.203311,0.451798 0.207072,0.165658 0.820764,0.399087 0.523334,0.199544 0.805706,0.380263 0.282375,0.18072 0.455561,0.485683 0.17695,0.301199 0.17695,0.700287 0,0.647577 -0.459322,1.10314 -0.455561,0.455563 -1.280094,0.455563 -1.423163,0 -1.76201,-1.438224 l 0.760527,-0.214604 q 0.199542,0.948776 1.039133,0.948776 0.410385,0 0.621223,-0.210839 0.214604,-0.214604 0.214604,-0.527097 0,-0.229664 -0.146833,-0.425443 -0.146834,-0.19578 -0.730409,-0.417913 -0.617457,-0.23343 -0.8923,-0.395324 -0.271078,-0.161894 -0.463091,-0.478153 -0.192016,-0.316258 -0.192016,-0.719112 0,-0.613691 0.425443,-1.031604 0.429209,-0.417913 1.137026,-0.417913 1.253739,0 1.600109,1.242444 z m 3.46379,2.262754 0.78311,0.109187 q -0.24096,1.713067 -1.68294,1.713067 -0.93748,0 -1.39681,-0.719112 -0.45933,-0.719111 -0.45933,-1.923906 0,-1.298918 0.48568,-1.991676 0.48568,-0.692756 1.40058,-0.692756 1.41563,0 1.66035,1.754481 l -0.79064,0.116716 q -0.12802,-1.167145 -0.86596,-1.167145 -0.98641,0 -0.98641,2.029325 0,1.890021 0.98641,1.890021 0.39533,0 0.58735,-0.286138 0.19578,-0.289904 0.27861,-0.832061 z m 5.01119,-0.843356 q 0,1.317744 -0.47062,1.991676 -0.47063,0.673932 -1.36669,0.673932 -0.89983,0 -1.37799,-0.670167 -0.47815,-0.673932 -0.47815,-1.995441 0,-1.310213 0.47438,-1.984145 0.4744,-0.677697 1.37799,-0.677697 0.8923,0 1.36669,0.673932 0.47439,0.670167 0.47439,1.98791 z m -0.8923,0 q 0,-0.914891 -0.2146,-1.438223 -0.21085,-0.527098 -0.74171,-0.527098 -0.53086,0 -0.7417,0.527098 -0.21084,0.527097 -0.21084,1.438223 0,0.896066 0.20707,1.430693 0.20708,0.534629 0.75677,0.534629 0.5158,0 0.73041,-0.515803 0.2146,-0.519568 0.2146,-1.449519 z m 1.68671,-2.567718 h 1.26127 l 1.02408,3.704743 1.05042,-3.704743 h 1.20857 v 5.139201 h -0.79818 v -4.386205 l -1.21986,4.386205 h -0.61745 l -1.19726,-4.38997 v 4.38997 h -0.71159 z" /><text
         xml:space="preserve"
         style="font-style:normal;font-variant:normal;font-weight:normal;font-stretch:normal;font-size:11.914px;font-family:'Franklin Gothic Medium Cond';-inkscape-font-specification:'Franklin Gothic Medium Cond';text-align:center;text-anchor:middle;fill:#ffffff;stroke:none;stroke-width:1;stroke-linecap:round;stroke-linejoin:round;stroke-miterlimit:10;stroke-dasharray:none;stroke-opacity:1"
         x="101.49862"
         y="19.9436"
         id="text52"><tspan
           sodipodi:role="line"
           id="tspan52"
           style="font-style:normal;font-variant:normal;font-weight:normal;font-stretch:normal;font-size:11.914px;font-family:'Franklin Gothic Medium Cond';-inkscape-font-specification:'Franklin Gothic Medium Cond';fill:#ffffff;stroke-width:1"
           x="101.49862"
           y="19.9436">LISER</tspan></text><path
         id="path52"
         style="fill:#ffffff;stroke:#000000;stroke-width:1;stroke-linecap:round;stroke-linejoin:round;stroke-miterlimit:10;stroke-dasharray:none;stroke-opacity:1"
         d="m 125.05152,39.004465 v 10.55222 h 5.4132 V 20.671307 h 5.41319 v 28.885379 h 5.4132 V 12.357437 h 5.41319 v 37.199248 h 5.41318 V 26.909227"
         sodipodi:nodetypes="cccccccccccc" /></g><g
       id="g9"
       transform="translate(83.723864,55.710108)"><rect
         style="fill:url(#linearGradient9);fill-opacity:1;stroke:none;stroke-width:0.264583;stroke-linecap:round;stroke-linejoin:round;stroke-miterlimit:10;-inkscape-stroke:none"
         id="rect25-7"
         width="38.649307"
         height="48.782578"
         x="119.25984"
         y="6.5657711" /><rect
         style="fill:#009694;fill-opacity:1;stroke:none;stroke-width:0.264583;stroke-linecap:round;stroke-linejoin:round;stroke-miterlimit:10;-inkscape-stroke:none"
         id="rect5"
         width="35.074547"
         height="48.782578"
         x="84.185295"
         y="6.5657711" /><path
         id="path5"
         style="font-size:26.6667px;line-height:0.9;font-family:'Franklin Gothic Medium Cond';-inkscape-font-specification:'Franklin Gothic Medium Cond';text-align:center;text-anchor:middle;white-space:pre;fill:#ffffff;stroke-width:0.264583;stroke-linecap:round;stroke-linejoin:round;stroke-miterlimit:10"
         d="m 93.518238,45.172299 -0.870501,0.302195 q -0.153348,-0.487121 -0.405929,-0.717147 -0.24807,-0.234537 -0.681064,-0.234537 -0.401423,0 -0.622429,0.239047 -0.216497,0.234539 -0.216497,0.541241 0,0.338278 0.243561,0.541241 0.248068,0.198456 0.983255,0.478098 0.62694,0.23905 0.965214,0.455546 0.338279,0.216497 0.545755,0.581836 0.211987,0.360829 0.211987,0.838926 0,0.775779 -0.550265,1.321534 -0.545751,0.545751 -1.53352,0.545751 -1.704913,0 -2.110842,-1.722953 l 0.911091,-0.25709 q 0.239047,1.136607 1.244855,1.136607 0.491631,0 0.744209,-0.252581 0.25709,-0.257087 0.25709,-0.631449 0,-0.275131 -0.175902,-0.509668 -0.175903,-0.23454 -0.875011,-0.500651 -0.739698,-0.279641 -1.068952,-0.473584 -0.324745,-0.193946 -0.554772,-0.572815 -0.23003,-0.378869 -0.23003,-0.86148 0,-0.735184 0.50967,-1.235836 0.514181,-0.500647 1.362128,-0.500647 1.501945,0 1.916899,1.488416 z m 1.055423,-1.375657 h 3.527097 v 0.816372 h -2.507759 v 1.759036 h 1.96652 v 0.820887 h -1.96652 v 1.925919 h 2.548345 v 0.834416 h -3.567683 z m 4.248746,0 h 1.853753 q 1.00581,0 1.48391,0.455543 0.4781,0.455547 0.4781,1.308003 0,1.136611 -0.94267,1.610195 l 1.16818,2.782889 h -1.10504 l -0.9607,-2.570902 h -0.956184 v 2.570902 h -1.019349 z m 1.019349,0.789311 v 2.007107 h 0.780284 q 0.5232,0 0.76675,-0.288664 0.24808,-0.288661 0.24808,-0.753228 0,-0.965215 -1.00581,-0.965215 z m 3.856334,-0.789311 h 1.01935 v 6.15663 h -1.01935 z m 2.20106,0 h 3.52709 v 0.816372 h -2.50775 v 1.759036 h 1.96651 v 0.820887 h -1.96651 v 1.925919 h 2.54835 v 0.834416 h -3.56769 z m 7.91566,1.375657 -0.87049,0.302195 q -0.15335,-0.487121 -0.40593,-0.717147 -0.24807,-0.234537 -0.68107,-0.234537 -0.40141,0 -0.62242,0.239047 -0.2165,0.234539 -0.2165,0.541241 0,0.338278 0.24356,0.541241 0.24807,0.198456 0.98326,0.478098 0.62694,0.23905 0.96521,0.455546 0.33827,0.216497 0.54576,0.581836 0.21198,0.360829 0.21198,0.838926 0,0.775779 -0.55026,1.321534 -0.54575,0.545751 -1.53353,0.545751 -1.7049,0 -2.11083,-1.722953 l 0.91108,-0.25709 q 0.23906,1.136607 1.24486,1.136607 0.49163,0 0.74422,-0.252581 0.25707,-0.257087 0.25707,-0.631449 0,-0.275131 -0.17589,-0.509668 -0.1759,-0.23454 -0.87501,-0.500651 -0.7397,-0.279641 -1.06895,-0.473584 -0.32475,-0.193946 -0.55478,-0.572815 -0.23003,-0.378869 -0.23003,-0.86148 0,-0.735184 0.50968,-1.235836 0.51417,-0.500647 1.36212,-0.500647 1.50194,0 1.91689,1.488416 z" /><path
         id="path6"
         style="font-size:26.6667px;line-height:0.9;font-family:'Franklin Gothic Medium Cond';-inkscape-font-specification:'Franklin Gothic Medium Cond';text-align:center;text-anchor:middle;white-space:pre;fill:#ffffff;stroke-width:0.264583;stroke-linecap:round;stroke-linejoin:round;stroke-miterlimit:10"
         d="m 92.563768,38.533656 -0.664903,0.23082 q -0.117134,-0.37207 -0.31006,-0.547769 -0.189481,-0.179144 -0.52021,-0.179144 -0.306613,0 -0.475422,0.182589 -0.165367,0.179144 -0.165367,0.413411 0,0.258384 0.186036,0.413412 0.189481,0.151585 0.751033,0.36518 0.478867,0.182592 0.737251,0.347956 0.258381,0.165365 0.416856,0.444418 0.16192,0.275609 0.16192,0.640789 0,0.592556 -0.420301,1.009415 -0.416859,0.416856 -1.171335,0.416856 -1.302247,0 -1.612307,-1.316027 l 0.69591,-0.196371 q 0.182591,0.868164 0.950849,0.868164 0.375515,0 0.568441,-0.192926 0.196369,-0.196371 0.196369,-0.482314 0,-0.210151 -0.134358,-0.389295 -0.134358,-0.179147 -0.668348,-0.382408 -0.564997,-0.213595 -0.816489,-0.361735 -0.248049,-0.148138 -0.423748,-0.437526 -0.1757,-0.289388 -0.1757,-0.658016 0,-0.561549 0.389295,-0.943956 0.392742,-0.382405 1.040421,-0.382405 1.147218,0 1.464167,1.136882 z m 0.806154,-1.050755 h 2.694067 v 0.623562 h -1.915475 v 1.343588 h 1.502063 v 0.62701 h -1.502063 v 1.471057 h 1.946481 v 0.637344 h -2.725073 z m 3.228059,0 h 1.154108 l 0.937066,3.389976 0.961184,-3.389976 h 1.105871 v 4.702561 h -0.73036 v -4.013541 l -1.116207,4.013541 h -0.564996 l -1.095542,-4.016986 v 4.016986 h -0.651124 z m 5.064289,0 h 0.7786 v 4.702561 h -0.7786 z m 1.65709,0 h 0.9164 l 1.54685,3.389976 v -3.389976 h 0.65112 v 4.702561 h -0.72691 l -1.73633,-3.765494 v 3.765494 h -0.65113 z m 4.9575,0 h 0.87161 l 1.26091,4.702561 h -0.78893 l -0.29627,-1.178224 h -1.3746 l -0.28939,1.178224 h -0.74414 z m 0.89229,2.91111 -0.53399,-2.153187 -0.53055,2.153187 z m 1.71221,-2.91111 h 1.41594 q 0.76825,0 1.13343,0.347953 0.36518,0.347956 0.36518,0.99908 0,0.868164 -0.72002,1.2299 l 0.89228,2.125628 h -0.84405 l -0.73381,-1.963708 h -0.73036 v 1.963708 h -0.77859 z m 0.77859,0.602893 v 1.533069 h 0.596 q 0.39964,0 0.58567,-0.220487 0.18948,-0.220486 0.18948,-0.575332 0,-0.73725 -0.76826,-0.73725 z" /><path
         id="path7"
         style="font-size:26.6667px;line-height:0.9;font-family:'Franklin Gothic Medium Cond';-inkscape-font-specification:'Franklin Gothic Medium Cond';text-align:center;text-anchor:middle;white-space:pre;fill:#ffffff;stroke-width:0.264583;stroke-linecap:round;stroke-linejoin:round;stroke-miterlimit:10"
         d="m 89.476959,31.740798 h 1.254785 q 0.680821,0 1.004439,0.308353 0.323619,0.308354 0.323619,0.885372 0,0.769356 -0.638076,1.089921 l 0.790728,1.883707 h -0.747987 l -0.650289,-1.740215 h -0.647237 v 1.740215 h -0.689982 z m 0.689982,0.534276 v 1.358585 h 0.528167 q 0.354149,0 0.519013,-0.195391 0.167913,-0.195391 0.167913,-0.509851 0,-0.653343 -0.680817,-0.653343 z m 2.610317,-0.534276 h 2.387452 v 0.552593 h -1.697471 v 1.190672 h 1.33111 v 0.555648 h -1.33111 v 1.303632 h 1.724948 v 0.564808 h -2.414929 z m 5.358024,0.931167 -0.589229,0.20455 q -0.103802,-0.329725 -0.274771,-0.485427 -0.167914,-0.158757 -0.461002,-0.158757 -0.271718,0 -0.421315,0.16181 -0.146544,0.158755 -0.146544,0.36636 0,0.228977 0.164861,0.36636 0.167915,0.134333 0.665556,0.323619 0.424368,0.16181 0.653343,0.308354 0.228974,0.146544 0.369412,0.393838 0.143492,0.244241 0.143492,0.56786 0,0.525115 -0.372466,0.89453 -0.369413,0.369413 -1.038022,0.369413 -1.154036,0 -1.428807,-1.166249 l 0.616707,-0.174019 q 0.16181,0.769356 0.842631,0.769356 0.332776,0 0.503745,-0.170969 0.174022,-0.174022 0.174022,-0.427421 0,-0.186232 -0.119069,-0.344988 -0.119066,-0.158758 -0.592281,-0.338885 -0.500694,-0.189285 -0.723563,-0.320566 -0.219816,-0.131277 -0.37552,-0.387729 -0.155704,-0.256455 -0.155704,-0.583126 0,-0.497638 0.344992,-0.836523 0.34804,-0.338884 0.922005,-0.338884 1.016653,0 1.297527,1.007493 z m 0.714403,-0.931167 h 2.387445 v 0.552593 h -1.697468 v 1.190672 h 1.331108 v 0.555648 h -1.331108 v 1.303632 h 1.724938 v 0.564808 h -2.414915 z m 3.657495,0 h 0.77241 l 1.1174,4.167353 h -0.69914 l -0.26256,-1.044128 h -1.21814 l -0.25645,1.044128 h -0.65945 z m 0.79073,2.57979 -0.47322,-1.908131 -0.47015,1.908131 z m 1.51735,-2.57979 h 1.25478 q 0.68082,0 1.00444,0.308353 0.32362,0.308354 0.32362,0.885372 0,0.769356 -0.63809,1.089921 l 0.79073,1.883707 h -0.74798 l -0.65029,-1.740215 h -0.64724 v 1.740215 h -0.68997 z m 0.68997,0.534276 v 1.358585 h 0.52817 q 0.35415,0 0.51902,-0.195391 0.16791,-0.195391 0.16791,-0.509851 0,-0.653343 -0.68082,-0.653343 z m 4.64973,2.231747 0.63503,0.08854 q -0.1954,1.389119 -1.3647,1.389119 -0.76019,0 -1.13267,-0.583124 -0.37246,-0.583126 -0.37246,-1.560087 0,-1.053286 0.39384,-1.61504 0.39384,-0.561752 1.13572,-0.561752 1.14792,0 1.34637,1.4227 l -0.64113,0.09464 q -0.1038,-0.946431 -0.70219,-0.946431 -0.79989,0 -0.79989,1.645568 0,1.53261 0.79989,1.53261 0.32057,0 0.47627,-0.232028 0.15875,-0.235083 0.22592,-0.674715 z m 1.20594,-2.766023 h 0.68997 v 1.728 h 1.22731 v -1.728 h 0.68999 v 4.167353 h -0.68999 v -1.856229 h -1.22731 v 1.856229 h -0.68997 z" /><path
         id="path8"
         style="font-size:26.6667px;line-height:0.9;font-family:'Franklin Gothic Medium Cond';-inkscape-font-specification:'Franklin Gothic Medium Cond';text-align:center;text-anchor:middle;white-space:pre;fill:#ffffff;stroke-width:0.264583;stroke-linecap:round;stroke-linejoin:round;stroke-miterlimit:10"
         d="m 89.476958,25.01885 h 1.547408 q 0.839592,0 1.238679,0.380263 0.399089,0.380264 0.399089,1.091845 0,0.948776 -0.786883,1.344099 l 0.975131,2.322994 H 91.92796 l -0.801941,-2.146039 h -0.798176 v 2.146039 h -0.850885 z m 0.850885,0.658872 v 1.675417 h 0.651343 q 0.436738,0 0.640046,-0.240958 0.207075,-0.240959 0.207075,-0.628753 0,-0.805706 -0.839591,-0.805706 z m 3.219061,-0.658872 h 2.944215 v 0.681461 h -2.09333 v 1.468344 h 1.641533 v 0.685226 h -1.641533 v 1.607648 h 2.127216 v 0.696522 h -2.978101 z m 6.607536,1.14832 -0.726635,0.252254 q -0.128007,-0.406618 -0.338847,-0.598632 -0.207074,-0.19578 -0.568512,-0.19578 -0.335085,0 -0.519569,0.199545 -0.180719,0.195779 -0.180719,0.451798 0,0.282373 0.203311,0.451798 0.207072,0.165658 0.820764,0.399087 0.523334,0.199544 0.805706,0.380263 0.282375,0.18072 0.455561,0.485683 0.17695,0.301199 0.17695,0.700287 0,0.647577 -0.459322,1.10314 -0.455561,0.455563 -1.280094,0.455563 -1.423163,0 -1.76201,-1.438224 l 0.760527,-0.214604 q 0.199542,0.948776 1.039133,0.948776 0.410385,0 0.621223,-0.210839 0.214604,-0.214604 0.214604,-0.527097 0,-0.229664 -0.146833,-0.425443 -0.146834,-0.19578 -0.730409,-0.417913 -0.617457,-0.23343 -0.8923,-0.395324 -0.271078,-0.161894 -0.463091,-0.478153 -0.192016,-0.316258 -0.192016,-0.719112 0,-0.613691 0.425443,-1.031604 0.429209,-0.417913 1.137026,-0.417913 1.253739,0 1.600109,1.242444 z m 3.46379,2.262754 0.78311,0.109187 q -0.24096,1.713067 -1.68294,1.713067 -0.93748,0 -1.39681,-0.719112 -0.45933,-0.719111 -0.45933,-1.923906 0,-1.298918 0.48568,-1.991676 0.48568,-0.692756 1.40058,-0.692756 1.41563,0 1.66035,1.754481 l -0.79064,0.116716 q -0.12802,-1.167145 -0.86596,-1.167145 -0.98641,0 -0.98641,2.029325 0,1.890021 0.98641,1.890021 0.39533,0 0.58735,-0.286138 0.19578,-0.289904 0.27861,-0.832061 z m 5.01119,-0.843356 q 0,1.317744 -0.47062,1.991676 -0.47063,0.673932 -1.36669,0.673932 -0.89983,0 -1.37799,-0.670167 -0.47815,-0.673932 -0.47815,-1.995441 0,-1.310213 0.47438,-1.984145 0.4744,-0.677697 1.37799,-0.677697 0.8923,0 1.36669,0.673932 0.47439,0.670167 0.47439,1.98791 z m -0.8923,0 q 0,-0.914891 -0.2146,-1.438223 -0.21085,-0.527098 -0.74171,-0.527098 -0.53086,0 -0.7417,0.527098 -0.21084,0.527097 -0.21084,1.438223 0,0.896066 0.20707,1.430693 0.20708,0.534629 0.75677,0.534629 0.5158,0 0.73041,-0.515803 0.2146,-0.519568 0.2146,-1.449519 z m 1.68671,-2.567718 h 1.26127 l 1.02408,3.704743 1.05042,-3.704743 h 1.20857 v 5.139201 h -0.79818 v -4.386205 l -1.21986,4.386205 h -0.61745 l -1.19726,-4.38997 v 4.38997 h -0.71159 z" /><text
         xml:space="preserve"
         style="font-style:normal;font-variant:normal;font-weight:normal;font-stretch:normal;font-size:11.914px;font-family:'Franklin Gothic Medium Cond';-inkscape-font-specification:'Franklin Gothic Medium Cond';text-align:center;text-anchor:middle;fill:#ffffff;stroke:none;stroke-width:1;stroke-linecap:round;stroke-linejoin:round;stroke-miterlimit:10;stroke-dasharray:none;stroke-opacity:1"
         x="101.49862"
         y="19.9436"
         id="text8"><tspan
           sodipodi:role="line"
           id="tspan8"
           style="font-style:normal;font-variant:normal;font-weight:normal;font-stretch:normal;font-size:11.914px;font-family:'Franklin Gothic Medium Cond';-inkscape-font-specification:'Franklin Gothic Medium Cond';fill:#ffffff;stroke-width:1"
           x="101.49862"
           y="19.9436">LISER</tspan></text><path
         id="path9"
         style="fill:#ffffff;stroke:none;stroke-width:1;stroke-linecap:round;stroke-linejoin:round;stroke-miterlimit:10;stroke-dasharray:none;stroke-opacity:1"
         d="m 124.68773,39.2208 v 10.835887 h 5.55872 V 20.394804 h 5.55871 v 29.661884 h 5.55871 V 11.857439 h 5.55871 v 38.199248 h 5.5587 V 26.800414"
         sodipodi:nodetypes="cccccccccccc" /></g><g
       id="g15"
       transform="translate(167.51584,55.710111)"><rect
         style="fill:url(#linearGradient15);fill-opacity:1;stroke:none;stroke-width:0.264583;stroke-linecap:round;stroke-linejoin:round;stroke-miterlimit:10;-inkscape-stroke:none"
         id="rect4"
         width="35.346985"
         height="48.782578"
         x="84.049072"
         y="6.5657711" /><rect
         style="fill:#009694;fill-opacity:1;stroke:none;stroke-width:0.264583;stroke-linecap:round;stroke-linejoin:round;stroke-miterlimit:10;-inkscape-stroke:none"
         id="rect6"
         width="38.513107"
         height="48.782578"
         x="119.39606"
         y="6.5657711" /><path
         id="path10"
         style="font-size:26.6667px;line-height:0.9;font-family:'Franklin Gothic Medium Cond';-inkscape-font-specification:'Franklin Gothic Medium Cond';text-align:center;text-anchor:middle;white-space:pre;fill:#ffffff;stroke-width:0.264583;stroke-linecap:round;stroke-linejoin:round;stroke-miterlimit:10"
         d="m 93.518238,45.172299 -0.870501,0.302195 q -0.153348,-0.487121 -0.405929,-0.717147 -0.24807,-0.234537 -0.681064,-0.234537 -0.401423,0 -0.622429,0.239047 -0.216497,0.234539 -0.216497,0.541241 0,0.338278 0.243561,0.541241 0.248068,0.198456 0.983255,0.478098 0.62694,0.23905 0.965214,0.455546 0.338279,0.216497 0.545755,0.581836 0.211987,0.360829 0.211987,0.838926 0,0.775779 -0.550265,1.321534 -0.545751,0.545751 -1.53352,0.545751 -1.704913,0 -2.110842,-1.722953 l 0.911091,-0.25709 q 0.239047,1.136607 1.244855,1.136607 0.491631,0 0.744209,-0.252581 0.25709,-0.257087 0.25709,-0.631449 0,-0.275131 -0.175902,-0.509668 -0.175903,-0.23454 -0.875011,-0.500651 -0.739698,-0.279641 -1.068952,-0.473584 -0.324745,-0.193946 -0.554772,-0.572815 -0.23003,-0.378869 -0.23003,-0.86148 0,-0.735184 0.50967,-1.235836 0.514181,-0.500647 1.362128,-0.500647 1.501945,0 1.916899,1.488416 z m 1.055423,-1.375657 h 3.527097 v 0.816372 h -2.507759 v 1.759036 h 1.96652 v 0.820887 h -1.96652 v 1.925919 h 2.548345 v 0.834416 h -3.567683 z m 4.248746,0 h 1.853753 q 1.00581,0 1.48391,0.455543 0.4781,0.455547 0.4781,1.308003 0,1.136611 -0.94267,1.610195 l 1.16818,2.782889 h -1.10504 l -0.9607,-2.570902 h -0.956184 v 2.570902 h -1.019349 z m 1.019349,0.789311 v 2.007107 h 0.780284 q 0.5232,0 0.76675,-0.288664 0.24808,-0.288661 0.24808,-0.753228 0,-0.965215 -1.00581,-0.965215 z m 3.856334,-0.789311 h 1.01935 v 6.15663 h -1.01935 z m 2.20106,0 h 3.52709 v 0.816372 h -2.50775 v 1.759036 h 1.96651 v 0.820887 h -1.96651 v 1.925919 h 2.54835 v 0.834416 h -3.56769 z m 7.91566,1.375657 -0.87049,0.302195 q -0.15335,-0.487121 -0.40593,-0.717147 -0.24807,-0.234537 -0.68107,-0.234537 -0.40141,0 -0.62242,0.239047 -0.2165,0.234539 -0.2165,0.541241 0,0.338278 0.24356,0.541241 0.24807,0.198456 0.98326,0.478098 0.62694,0.23905 0.96521,0.455546 0.33827,0.216497 0.54576,0.581836 0.21198,0.360829 0.21198,0.838926 0,0.775779 -0.55026,1.321534 -0.54575,0.545751 -1.53353,0.545751 -1.7049,0 -2.11083,-1.722953 l 0.91108,-0.25709 q 0.23906,1.136607 1.24486,1.136607 0.49163,0 0.74422,-0.252581 0.25707,-0.257087 0.25707,-0.631449 0,-0.275131 -0.17589,-0.509668 -0.1759,-0.23454 -0.87501,-0.500651 -0.7397,-0.279641 -1.06895,-0.473584 -0.32475,-0.193946 -0.55478,-0.572815 -0.23003,-0.378869 -0.23003,-0.86148 0,-0.735184 0.50968,-1.235836 0.51417,-0.500647 1.36212,-0.500647 1.50194,0 1.91689,1.488416 z" /><path
         id="path11"
         style="font-size:26.6667px;line-height:0.9;font-family:'Franklin Gothic Medium Cond';-inkscape-font-specification:'Franklin Gothic Medium Cond';text-align:center;text-anchor:middle;white-space:pre;fill:#ffffff;stroke-width:0.264583;stroke-linecap:round;stroke-linejoin:round;stroke-miterlimit:10"
         d="m 92.563768,38.533656 -0.664903,0.23082 q -0.117134,-0.37207 -0.31006,-0.547769 -0.189481,-0.179144 -0.52021,-0.179144 -0.306613,0 -0.475422,0.182589 -0.165367,0.179144 -0.165367,0.413411 0,0.258384 0.186036,0.413412 0.189481,0.151585 0.751033,0.36518 0.478867,0.182592 0.737251,0.347956 0.258381,0.165365 0.416856,0.444418 0.16192,0.275609 0.16192,0.640789 0,0.592556 -0.420301,1.009415 -0.416859,0.416856 -1.171335,0.416856 -1.302247,0 -1.612307,-1.316027 l 0.69591,-0.196371 q 0.182591,0.868164 0.950849,0.868164 0.375515,0 0.568441,-0.192926 0.196369,-0.196371 0.196369,-0.482314 0,-0.210151 -0.134358,-0.389295 -0.134358,-0.179147 -0.668348,-0.382408 -0.564997,-0.213595 -0.816489,-0.361735 -0.248049,-0.148138 -0.423748,-0.437526 -0.1757,-0.289388 -0.1757,-0.658016 0,-0.561549 0.389295,-0.943956 0.392742,-0.382405 1.040421,-0.382405 1.147218,0 1.464167,1.136882 z m 0.806154,-1.050755 h 2.694067 v 0.623562 h -1.915475 v 1.343588 h 1.502063 v 0.62701 h -1.502063 v 1.471057 h 1.946481 v 0.637344 h -2.725073 z m 3.228059,0 h 1.154108 l 0.937066,3.389976 0.961184,-3.389976 h 1.105871 v 4.702561 h -0.73036 v -4.013541 l -1.116207,4.013541 h -0.564996 l -1.095542,-4.016986 v 4.016986 h -0.651124 z m 5.064289,0 h 0.7786 v 4.702561 h -0.7786 z m 1.65709,0 h 0.9164 l 1.54685,3.389976 v -3.389976 h 0.65112 v 4.702561 h -0.72691 l -1.73633,-3.765494 v 3.765494 h -0.65113 z m 4.9575,0 h 0.87161 l 1.26091,4.702561 h -0.78893 l -0.29627,-1.178224 h -1.3746 l -0.28939,1.178224 h -0.74414 z m 0.89229,2.91111 -0.53399,-2.153187 -0.53055,2.153187 z m 1.71221,-2.91111 h 1.41594 q 0.76825,0 1.13343,0.347953 0.36518,0.347956 0.36518,0.99908 0,0.868164 -0.72002,1.2299 l 0.89228,2.125628 h -0.84405 l -0.73381,-1.963708 h -0.73036 v 1.963708 h -0.77859 z m 0.77859,0.602893 v 1.533069 h 0.596 q 0.39964,0 0.58567,-0.220487 0.18948,-0.220486 0.18948,-0.575332 0,-0.73725 -0.76826,-0.73725 z" /><path
         id="path12"
         style="font-size:26.6667px;line-height:0.9;font-family:'Franklin Gothic Medium Cond';-inkscape-font-specification:'Franklin Gothic Medium Cond';text-align:center;text-anchor:middle;white-space:pre;fill:#ffffff;stroke-width:0.264583;stroke-linecap:round;stroke-linejoin:round;stroke-miterlimit:10"
         d="m 89.476959,31.740798 h 1.254785 q 0.680821,0 1.004439,0.308353 0.323619,0.308354 0.323619,0.885372 0,0.769356 -0.638076,1.089921 l 0.790728,1.883707 h -0.747987 l -0.650289,-1.740215 h -0.647237 v 1.740215 h -0.689982 z m 0.689982,0.534276 v 1.358585 h 0.528167 q 0.354149,0 0.519013,-0.195391 0.167913,-0.195391 0.167913,-0.509851 0,-0.653343 -0.680817,-0.653343 z m 2.610317,-0.534276 h 2.387452 v 0.552593 h -1.697471 v 1.190672 h 1.33111 v 0.555648 h -1.33111 v 1.303632 h 1.724948 v 0.564808 h -2.414929 z m 5.358024,0.931167 -0.589229,0.20455 q -0.103802,-0.329725 -0.274771,-0.485427 -0.167914,-0.158757 -0.461002,-0.158757 -0.271718,0 -0.421315,0.16181 -0.146544,0.158755 -0.146544,0.36636 0,0.228977 0.164861,0.36636 0.167915,0.134333 0.665556,0.323619 0.424368,0.16181 0.653343,0.308354 0.228974,0.146544 0.369412,0.393838 0.143492,0.244241 0.143492,0.56786 0,0.525115 -0.372466,0.89453 -0.369413,0.369413 -1.038022,0.369413 -1.154036,0 -1.428807,-1.166249 l 0.616707,-0.174019 q 0.16181,0.769356 0.842631,0.769356 0.332776,0 0.503745,-0.170969 0.174022,-0.174022 0.174022,-0.427421 0,-0.186232 -0.119069,-0.344988 -0.119066,-0.158758 -0.592281,-0.338885 -0.500694,-0.189285 -0.723563,-0.320566 -0.219816,-0.131277 -0.37552,-0.387729 -0.155704,-0.256455 -0.155704,-0.583126 0,-0.497638 0.344992,-0.836523 0.34804,-0.338884 0.922005,-0.338884 1.016653,0 1.297527,1.007493 z m 0.714403,-0.931167 h 2.387445 v 0.552593 h -1.697468 v 1.190672 h 1.331108 v 0.555648 h -1.331108 v 1.303632 h 1.724938 v 0.564808 h -2.414915 z m 3.657495,0 h 0.77241 l 1.1174,4.167353 h -0.69914 l -0.26256,-1.044128 h -1.21814 l -0.25645,1.044128 h -0.65945 z m 0.79073,2.57979 -0.47322,-1.908131 -0.47015,1.908131 z m 1.51735,-2.57979 h 1.25478 q 0.68082,0 1.00444,0.308353 0.32362,0.308354 0.32362,0.885372 0,0.769356 -0.63809,1.089921 l 0.79073,1.883707 h -0.74798 l -0.65029,-1.740215 h -0.64724 v 1.740215 h -0.68997 z m 0.68997,0.534276 v 1.358585 h 0.52817 q 0.35415,0 0.51902,-0.195391 0.16791,-0.195391 0.16791,-0.509851 0,-0.653343 -0.68082,-0.653343 z m 4.64973,2.231747 0.63503,0.08854 q -0.1954,1.389119 -1.3647,1.389119 -0.76019,0 -1.13267,-0.583124 -0.37246,-0.583126 -0.37246,-1.560087 0,-1.053286 0.39384,-1.61504 0.39384,-0.561752 1.13572,-0.561752 1.14792,0 1.34637,1.4227 l -0.64113,0.09464 q -0.1038,-0.946431 -0.70219,-0.946431 -0.79989,0 -0.79989,1.645568 0,1.53261 0.79989,1.53261 0.32057,0 0.47627,-0.232028 0.15875,-0.235083 0.22592,-0.674715 z m 1.20594,-2.766023 h 0.68997 v 1.728 h 1.22731 v -1.728 h 0.68999 v 4.167353 h -0.68999 v -1.856229 h -1.22731 v 1.856229 h -0.68997 z" /><path
         id="path13"
         style="font-size:26.6667px;line-height:0.9;font-family:'Franklin Gothic Medium Cond';-inkscape-font-specification:'Franklin Gothic Medium Cond';text-align:center;text-anchor:middle;white-space:pre;fill:#ffffff;stroke-width:0.264583;stroke-linecap:round;stroke-linejoin:round;stroke-miterlimit:10"
         d="m 89.476958,25.01885 h 1.547408 q 0.839592,0 1.238679,0.380263 0.399089,0.380264 0.399089,1.091845 0,0.948776 -0.786883,1.344099 l 0.975131,2.322994 H 91.92796 l -0.801941,-2.146039 h -0.798176 v 2.146039 h -0.850885 z m 0.850885,0.658872 v 1.675417 h 0.651343 q 0.436738,0 0.640046,-0.240958 0.207075,-0.240959 0.207075,-0.628753 0,-0.805706 -0.839591,-0.805706 z m 3.219061,-0.658872 h 2.944215 v 0.681461 h -2.09333 v 1.468344 h 1.641533 v 0.685226 h -1.641533 v 1.607648 h 2.127216 v 0.696522 h -2.978101 z m 6.607536,1.14832 -0.726635,0.252254 q -0.128007,-0.406618 -0.338847,-0.598632 -0.207074,-0.19578 -0.568512,-0.19578 -0.335085,0 -0.519569,0.199545 -0.180719,0.195779 -0.180719,0.451798 0,0.282373 0.203311,0.451798 0.207072,0.165658 0.820764,0.399087 0.523334,0.199544 0.805706,0.380263 0.282375,0.18072 0.455561,0.485683 0.17695,0.301199 0.17695,0.700287 0,0.647577 -0.459322,1.10314 -0.455561,0.455563 -1.280094,0.455563 -1.423163,0 -1.76201,-1.438224 l 0.760527,-0.214604 q 0.199542,0.948776 1.039133,0.948776 0.410385,0 0.621223,-0.210839 0.214604,-0.214604 0.214604,-0.527097 0,-0.229664 -0.146833,-0.425443 -0.146834,-0.19578 -0.730409,-0.417913 -0.617457,-0.23343 -0.8923,-0.395324 -0.271078,-0.161894 -0.463091,-0.478153 -0.192016,-0.316258 -0.192016,-0.719112 0,-0.613691 0.425443,-1.031604 0.429209,-0.417913 1.137026,-0.417913 1.253739,0 1.600109,1.242444 z m 3.46379,2.262754 0.78311,0.109187 q -0.24096,1.713067 -1.68294,1.713067 -0.93748,0 -1.39681,-0.719112 -0.45933,-0.719111 -0.45933,-1.923906 0,-1.298918 0.48568,-1.991676 0.48568,-0.692756 1.40058,-0.692756 1.41563,0 1.66035,1.754481 l -0.79064,0.116716 q -0.12802,-1.167145 -0.86596,-1.167145 -0.98641,0 -0.98641,2.029325 0,1.890021 0.98641,1.890021 0.39533,0 0.58735,-0.286138 0.19578,-0.289904 0.27861,-0.832061 z m 5.01119,-0.843356 q 0,1.317744 -0.47062,1.991676 -0.47063,0.673932 -1.36669,0.673932 -0.89983,0 -1.37799,-0.670167 -0.47815,-0.673932 -0.47815,-1.995441 0,-1.310213 0.47438,-1.984145 0.4744,-0.677697 1.37799,-0.677697 0.8923,0 1.36669,0.673932 0.47439,0.670167 0.47439,1.98791 z m -0.8923,0 q 0,-0.914891 -0.2146,-1.438223 -0.21085,-0.527098 -0.74171,-0.527098 -0.53086,0 -0.7417,0.527098 -0.21084,0.527097 -0.21084,1.438223 0,0.896066 0.20707,1.430693 0.20708,0.534629 0.75677,0.534629 0.5158,0 0.73041,-0.515803 0.2146,-0.519568 0.2146,-1.449519 z m 1.68671,-2.567718 h 1.26127 l 1.02408,3.704743 1.05042,-3.704743 h 1.20857 v 5.139201 h -0.79818 v -4.386205 l -1.21986,4.386205 h -0.61745 l -1.19726,-4.38997 v 4.38997 h -0.71159 z" /><text
         xml:space="preserve"
         style="font-style:normal;font-variant:normal;font-weight:normal;font-stretch:normal;font-size:11.914px;font-family:'Franklin Gothic Medium Cond';-inkscape-font-specification:'Franklin Gothic Medium Cond';text-align:center;text-anchor:middle;fill:#ffffff;stroke:none;stroke-width:1;stroke-linecap:round;stroke-linejoin:round;stroke-miterlimit:10;stroke-dasharray:none;stroke-opacity:1"
         x="101.49862"
         y="19.9436"
         id="text14"><tspan
           sodipodi:role="line"
           id="tspan14"
           style="font-style:normal;font-variant:normal;font-weight:normal;font-stretch:normal;font-size:11.914px;font-family:'Franklin Gothic Medium Cond';-inkscape-font-specification:'Franklin Gothic Medium Cond';fill:#ffffff;stroke-width:1"
           x="101.49862"
           y="19.9436">LISER</tspan></text><path
         id="path15"
         style="fill:#ffffff;stroke:none;stroke-width:1;stroke-linecap:round;stroke-linejoin:round;stroke-miterlimit:10;stroke-dasharray:none;stroke-opacity:1"
         d="m 124.68773,39.2208 v 10.835887 h 5.55872 V 20.394804 h 5.55871 v 29.661884 h 5.55871 V 11.857439 h 5.55871 v 38.199248 h 5.5587 V 26.800414"
         sodipodi:nodetypes="cccccccccccc" /></g></g></svg>
