<svg xmlns="http://www.w3.org/2000/svg" viewBox="0 0 248 215.33"><defs><style>.cls-1{fill:#fff;}.cls-2{fill:#fbbe2f;}.cls-3{fill:#4385f6;}.cls-4{fill:#34a855;}</style></defs><title>Logo2018_SC</title><g id="Thematic"><rect class="cls-1" x="21.18" y="7.55" width="100" height="100" rx="12" ry="12"/><rect class="cls-2" x="41.18" y="17.55" width="80" height="80" rx="12" ry="12"/><path class="cls-1" d="M105.68,67.21a14.47,14.47,0,0,0-5.48,1.08l-3.55-9.67.6-.95,2,1.07,4.16-.24L103,56.72l2.73-.71-3-2.85-3.09-.83L84.53,39.64V36.4l1-3h1.79V30.7l1-.87-1.07-1.51-.72-4-4.87-1-4.51,1.9-1.67,4.6,1.67,3.56-7.49,6.25-8.44,4,3.21,5.94-6.89,9.87,12.12,5v1.35l-3.38,3.78a14.41,14.41,0,1,0,5.56,13.21l.79.08.36,1.61.83,1.56h3.09L76.1,89.7h2.73l1,2,2.67-1.4h6.48l-.36-1.69-3.8-1.31-2.32-3.57,1.49-7.12L96.53,65.1l1.67,4.2a14.41,14.41,0,1,0,7.48-2.09Zm-48.24,26a12.12,12.12,0,1,1,7.21-21.86L59.22,77.4l-.95.35-3.92,2.86,2.38,3.68v4.85L58.87,85l.83-3.38,9.76,1A12.11,12.11,0,0,1,57.44,93.2ZM69.55,80.57l-9.85-.5,6.24-7.63A12.09,12.09,0,0,1,69.55,80.57Zm2.92.15-.63,0a14.34,14.34,0,0,0-4.45-10l3.06-3.75.66,1-2.62,3.27,2.62,3.62.74-1.13,2.4,4.64Zm5.67-4,.21.23-.26.06-.4,2.57H76.45l-.83-2L78.09,77l0-.29-2.4-2.62-.95-4.16,1.9-1,2.38,1.9Zm8.06-4.76.59-5.26L85,64.5l10.57-2.59.32,1.3ZM94,56.25l.59,4.07-6.65.8,1-3.63-1.78-1.36-8.08-2.32L83,46.5l8.79,8,1.78-.83,2.5,2.62Zm11.64,37.49a12.12,12.12,0,0,1-6.62-22.28l1.51,3.8,3.81,5.82.71,1.74h2.38V81.08l-5.11-6.89L101,70.44a12.12,12.12,0,1,1,4.7,23.3Z"/><path class="cls-1" d="M21.18,23.06c.06-4.48-8-8.53-12.87-11A1.93,1.93,0,0,1,8.6,8.5c5.28-1.72,15.59-1.06,19,1.51"/><rect class="cls-1" x="131.18" y="7.55" width="100" height="198.95" rx="12" ry="12"/><rect class="cls-3" x="151.18" y="27.44" width="80" height="159.16" rx="12" ry="12"/><path class="cls-1" d="M231.22,193.19c-.81,4.41,6.47,9.75,10.85,13a1.93,1.93,0,0,1-.88,3.46c-5.49.81-15.55-1.57-18.43-4.66"/><path class="cls-1" d="M179.52,182.72c-1.84.2-4.07.73-5.83.85s-3-.19-4.7-.15L164.45,180l-.8.77-4.82-2.94c0-.64.1-1.32.11-1.92.68-1.37.77-1.8,1.55-3.36s.36-2.67,1.44-4.89,2-4.39,3.94-7.68,7.47-11.54,8.52-15.21,1-1.84,1.32-5.53-.85-11.05.6-15.36c-.66-3.47-1.33-6.83-1.83-10.15,1.06-4.24,2.74-6.06,3.8-10.81s1.55-12.39,2.47-17.72c-1.92,1.93-4.47,3.18-6.24,5.41a66,66,0,0,0-5.27,8.15c-1.31,2.37-1.64,4.3-2.52,6.61s-1.1,4.77-1.87,7.12l-3.06.16c-.94-1.11-1.82-2.4-2.78-3.4,1.32-3.56,1.69-3.84,3.24-8.17s4.27-12.72,6-17.82C175.18,76,182,68.91,188.86,61.69l-.75-9.12c.81-2,1.61-4,2.41-6l4.85-2.51,6.75.14c.92,1.28,1.85,2.55,2.77,3.82l-.18,6c.42,1,.83,2.07,1.25,3.1l-1.27.88-.27,5.35-2.91.73-3.14,3-.06,2.05L201.2,74q.88,6.41,1.76,12.79l6.85,1.4,9.49-1.73,2.84-4,2.72-1.08c.82,1.92,1.65,3.83,2.47,5.75L225,90q-9,3.67-17.93,7.35l-6.06.1-2.61-1.76c-.19,5.23-.27,10.5-.68,15.72C202,125.89,210,132.29,212,140.93c.53,2.27,1.29,4.82.28,7.32-1.62,4-3.52,9.58-7.07,17.12-.89,1.88,1.19,3.7,2.21,5.47,2.3.53,4.64.76,7,1.13l1.39,2.05c-2.08.81-4.16,1.66-6.23,2.49-1.72,0-3.43,0-5.14,0l-4.28-1.34-.91,1c-2.11-.58-4.1-1.29-6.29-1.79.73-3.5,1.18-4.65,3.93-8.27s5.8-21.07,5.8-21.07a38.51,38.51,0,0,0-4-4.29c-3.08-3-8-6.84-10.29-11.16-3.07,6.66-1.57,12.54-4.24,19.77s-8.13,16.16-11.94,23.43c.14,1.27.18,2.55.23,3.8,1.05,1.07,2.23,2,3.31,3l3.66.38C179.38,181,179.47,181.83,179.52,182.72Z"/><rect class="cls-1" x="21.18" y="106.5" width="100" height="100" rx="12" ry="12"/><rect class="cls-4" x="21.18" y="116.5" width="80" height="80" rx="12" ry="12"/><path class="cls-1" d="M121.17,193.26c-.81,4.41,6.46,9.75,10.84,13a1.93,1.93,0,0,1-.88,3.46c-5.48.81-15.54-1.56-18.43-4.66"/><path class="cls-1" d="M85.8,190.35,84,143.76l-2.69-9.13-3.82-.58-2.33,1.28-4.34-3.15-.56-3.38,8-23.78H76.55l-8,23.67L67,128.57l-1.43,2.68-5.44-.35-.94-3L66.76,105H65l-7.54,23.14H56.15l-1.07,3.15L49.15,133l-3.49,3.41-2.36-2.27H39.19l-2.71,9.65-1,46.59h1.49v3.73H43.1v-3.79l36.46.06v3.73h5.36l0-3.73Zm-42.64-8.27H39.54a1.58,1.58,0,0,1,0-3.15h3.62a1.58,1.58,0,0,1,0,3.15Zm15.91-13.79a2.1,2.1,0,0,1-2.1,2.09H40.07a2.1,2.1,0,0,1-2.1-2.09V154.13a2.1,2.1,0,0,1,2.1-2.1H57a2.11,2.11,0,0,1,2.1,2.1Zm20.05,13.79H75.5a1.58,1.58,0,0,1,0-3.15h3.62a1.58,1.58,0,0,1,0,3.15Zm2.53-13.79a2.1,2.1,0,0,1-2.1,2.09H62.65a2.1,2.1,0,0,1-2.1-2.09V154.13a2.1,2.1,0,0,1,2.1-2.1h16.9a2.11,2.11,0,0,1,2.1,2.1Z"/></g></svg>